<?xml version="1.0" encoding="utf-8"?>
<!-- Generator: Adobe Illustrator 16.0.0, SVG Export Plug-In . SVG Version: 6.00 Build 0)  -->
<!DOCTYPE svg PUBLIC "-//W3C//DTD SVG 1.1//EN" "http://www.w3.org/Graphics/SVG/1.1/DTD/svg11.dtd">
<svg version="1.1" id="Layer_1" xmlns="http://www.w3.org/2000/svg" xmlns:xlink="http://www.w3.org/1999/xlink" x="0px" y="0px"
	 width="560.714px" height="557.143px" viewBox="0 0 560.714 557.143" enable-background="new 0 0 560.714 557.143"
	 xml:space="preserve">
<g>
	<polygon fill="#DADADA" points="509.81,278.572 492,306.559 502.017,338.188 477.553,360.598 478.986,393.742 449.541,409.027 
		442.358,441.416 409.968,448.599 394.683,478.044 361.539,476.611 339.131,501.074 307.502,491.056 279.515,508.867 
		251.527,491.058 219.898,501.074 197.488,476.611 164.345,478.044 149.059,448.597 116.67,441.416 109.487,409.026 80.042,393.74 
		81.476,360.597 57.012,338.188 67.029,306.559 49.219,278.572 67.029,250.584 57.012,218.956 81.476,196.546 80.042,163.402 
		109.488,148.116 116.671,115.728 149.061,108.544 164.346,79.099 197.49,80.533 219.898,56.069 251.527,66.086 279.515,48.276 
		307.502,66.086 339.131,56.07 361.54,80.533 394.684,79.1 409.97,108.546 442.359,115.729 449.541,148.118 478.987,163.403 
		477.554,196.547 502.017,218.956 492,250.584 	"/>
</g>
<g display="none">
	<defs>
		<path id="SVGID_1_" d="M50.796,279.95c0.015-2,0.03-4,0.044-6c0.275-1.949,0.594-3.896,0.816-5.852
			c1.16-10.242,1.693-20.596,3.541-30.711c10.292-56.342,37.858-102.766,82.679-138.209
			c54.142-42.814,115.863-57.814,183.869-46.205c41.151,7.025,77.555,24.627,108.852,52.104
			c46.901,41.174,73.321,93.021,78.482,155.377c3.528,42.641-4.003,83.385-23.863,121.262
			c-35.304,67.33-90.586,108.365-165.423,122.568c-28.993,5.502-58.045,4.666-86.812-1.467
			c-35.538-7.578-67.756-22.617-95.913-45.705c-49.157-40.306-77.536-92.058-84.459-155.378
			C51.817,294.493,51.391,287.212,50.796,279.95z"/>
	</defs>
	<clipPath id="SVGID_2_" display="inline">
		<use xlink:href="#SVGID_1_"  overflow="visible"/>
	</clipPath>
	<path display="inline" clip-path="url(#SVGID_2_)" fill="#ADADAD" d="M578.256,284.974c0,161.832-130.687,293.013-291.9,293.013
		c-161.211,0-291.896-131.182-291.896-293.013c0-161.824,130.686-293.009,291.896-293.009
		C447.569-8.036,578.256,123.149,578.256,284.974z"/>
	<g id="szyH21.tif" display="inline" clip-path="url(#SVGID_2_)">
		<g>
			<path fill-rule="evenodd" clip-rule="evenodd" fill="#DADADA" d="M330.941,381.03c10.35-2.041,20.091-3.549,29.614-5.922
				c24.529-6.111,45.858-17.441,60.514-38.965c11.119-16.326,16.421-34.738,17.785-54.143c0.836-11.904,0.925-24.047-0.45-35.873
				c-1.93-16.602-9.364-31.252-20.25-43.984c-2.053-2.4-2.642-4.398-1.668-7.562c5.82-18.927,4.171-37.632-2.762-55.919
				c-0.664-1.75-3.827-3.576-5.861-3.611c-11.477-0.193-22.133,3.555-32.251,8.502c-8.702,4.252-16.916,9.491-25.509,13.982
				c-2.09,1.092-5.021,1.803-7.22,1.27c-37.736-9.16-75.405-9.166-113.149-0.02c-2.326,0.564-5.561-0.266-7.68-1.57
				c-15.79-9.723-31.86-18.688-50.483-21.793c-1.872-0.311-3.807-0.244-5.675-0.565c-4.712-0.812-6.792,1.544-8.134,5.78
				c-5.77,18.225-7.245,36.481-1.548,55.037c0.484,1.576-0.075,4.167-1.154,5.424c-21.556,25.133-25.286,54.533-20.967,85.949
				c2.714,19.727,8.521,38.24,21.069,54.102c15.55,19.654,36.853,29.537,60.56,35.068c8.272,1.932,16.705,3.17,25.725,4.846
				c-8.024,8.775-12.319,18.734-14.286,29.838c-0.213,1.201-2.155,2.441-3.562,3.033c-26.837,11.292-50.741,3.807-66.285-20.637
				c-7.736-12.17-17.773-21.473-32.366-24.322c-3.948-0.771-8.308-0.27-12.335,0.451c-3.778,0.674-4.378,3.537-1.99,6.4
				c1.81,2.166,3.902,4.305,6.297,5.74c13.018,7.809,21.28,19.498,26.883,33.152c9.112,22.208,26.662,32.068,49.41,33.513
				c10.727,0.684,21.587-0.725,33.017-1.213c0,1.164-0.007,3.02,0.002,4.877c0.05,11.633,0.073,23.264,0.163,34.895
				c0.102,13.219-6.912,18.215-19.563,13.785c-24.808-8.684-47.788-20.832-68.468-37.078
				C88.195,424.09,57.384,372.903,48.089,309.79C30.418,189.811,105.373,76.782,222.865,44.817
				c129.418-35.208,262.691,41.3,296.602,171.146c31.596,120.971-36.306,244.451-155.006,284.998
				c-11.289,3.857-18.243-1.273-18.24-13.213c0.006-17.16-0.107-34.326,0.176-51.482
				C346.727,416.401,345.977,396.927,330.941,381.03z"/>
			<path fill-rule="evenodd" clip-rule="evenodd" fill="#DADADA" d="M165.695,419.469c-2.056-3.271-3.525-5.341-4.578-7.609
				c-0.14-0.301,2.521-2.457,2.739-2.285c2.021,1.572,3.899,3.379,5.48,5.385C169.524,415.198,167.69,417.034,165.695,419.469z"/>
			<path fill-rule="evenodd" clip-rule="evenodd" fill="#DADADA" d="M182.405,428.075c-2.167-2.152-3.743-3.719-5.317-5.285
				c1.295-1.018,2.999-3.137,3.811-2.838c2.178,0.801,3.975,2.641,5.924,4.07C185.603,425.141,184.382,426.26,182.405,428.075z"/>
			<path fill-rule="evenodd" clip-rule="evenodd" fill="#DADADA" d="M220.638,419.161c1.821,2.041,2.998,3.361,4.175,4.68
				c-1.873,1.262-3.63,3.172-5.663,3.537c-1.189,0.213-2.822-2.041-4.256-3.182C216.548,422.745,218.201,421.295,220.638,419.161z"
				/>
			<path fill-rule="evenodd" clip-rule="evenodd" fill="#DADADA" d="M201.515,421.61c2.152,1.9,3.579,3.16,5.005,4.42
				c-1.844,1.271-3.583,3.271-5.568,3.555c-1.291,0.186-2.938-2.129-4.429-3.324C197.988,424.897,199.451,423.532,201.515,421.61z"
				/>
			<path fill-rule="evenodd" clip-rule="evenodd" fill="#DADADA" d="M158.303,401.187c-2.118,1.309-3.815,2.756-4.141,2.494
				c-1.707-1.375-3.207-3.094-4.391-4.941c-0.158-0.25,2.553-2.893,2.768-2.744C154.344,397.247,155.877,398.894,158.303,401.187z"
				/>
			<path fill-rule="evenodd" clip-rule="evenodd" fill="#DADADA" d="M142.822,382.058c1.834,2.635,3.107,4.312,4.094,6.148
				c0.087,0.162-2.283,2.096-2.521,1.912c-1.494-1.145-2.914-2.529-3.887-4.127C140.237,385.546,141.561,384.13,142.822,382.058z"/>
		</g>
	</g>
</g>
<path display="none" fill="#DADADA" d="M50.797,281.641c0-2,0-4,0-6c0.26-1.953,0.564-3.901,0.772-5.859
	c1.085-10.25,1.541-20.607,3.313-30.735c9.875-56.416,37.098-103.042,81.654-138.816c53.824-43.214,115.433-58.67,183.522-47.563
	c41.202,6.721,77.735,24.053,109.234,51.296c47.204,40.826,74.007,92.478,79.629,154.793c3.844,42.613-3.386,83.412-22.966,121.434
	c-34.805,67.589-89.781,109.035-164.512,123.789c-28.951,5.717-58.009,5.098-86.82-0.824c-35.593-7.314-67.921-22.115-96.248-44.994
	c-49.454-39.941-78.215-91.482-85.606-154.75C51.926,296.176,51.445,288.898,50.797,281.641z"/>
<path display="none" fill-rule="evenodd" clip-rule="evenodd" fill="#ADADAD" d="M159.015,306.906c8.987,0,16.193,0,23.399,0
	c0.307-0.56,0.613-1.121,0.92-1.682c-28.27-11.493-45.149-31.375-47.794-63.303c8.244,2.304,15.726,4.395,23.206,6.486
	c0.716-0.503,1.43-1.006,2.146-1.509c-24.864-24.554-30.353-52.416-16.008-84.698c35.073,39.45,77.38,64.011,130.9,67.829
	c0-6.977-0.437-13.877,0.072-20.706c2.614-35.106,35.282-61.457,70.199-57.697c13.812,1.487,24.968,7.857,35.685,15.59
	c3.979,2.87,7.54,3.61,12.084,1.858c10.44-4.028,20.987-7.785,33.017-10.525c-6.979,9.944-13.959,19.888-20.939,29.832
	c0.248,0.606,0.498,1.213,0.748,1.819c8.56-2.472,17.119-4.943,25.679-7.415c0.344,0.412,0.687,0.824,1.031,1.236
	c-1.808,2.441-3.162,5.491-5.494,7.229c-19.576,14.597-24.148,35.062-27.193,58.188c-6.798,51.664-32.947,93.326-74.635,124.379
	c-32.741,24.387-70.653,32.93-111.095,31.987c-29.8-0.694-57.126-9.731-83.237-23.316c-1.532-0.798-2.867-1.975-4.352-4.002
	c31.412-0.576,61.153-6.169,87.833-25.613C191.117,344.646,168.624,334.895,159.015,306.906z"/>
<path display="none" fill="#DADADA" d="M49.954,281.641c0-2,0-4,0-6c0.26-1.952,0.564-3.9,0.772-5.858
	c1.085-10.25,1.541-20.607,3.313-30.735c9.875-56.416,37.098-103.043,81.654-138.816c53.824-43.214,115.433-58.67,183.522-47.563
	c41.202,6.721,77.735,24.053,109.234,51.296c47.204,40.826,74.006,92.478,79.629,154.794c3.844,42.613-3.387,83.411-22.967,121.434
	c-34.804,67.589-89.781,109.034-164.511,123.788c-28.951,5.717-58.009,5.098-86.82-0.824c-35.593-7.314-67.921-22.115-96.248-44.994
	c-49.454-39.941-78.215-91.482-85.606-154.75C51.083,296.176,50.603,288.899,49.954,281.641z"/>
<g>
	<path fill-rule="evenodd" clip-rule="evenodd" fill="#ADADAD" d="M366.145,200.708c42.013-0.992,77.888,35.107,77.875,77.794
		c-0.013,41.249-33.991,78.091-78.306,77.958c-42.684-0.129-77.946-35.351-77.671-78.564
		C288.319,234.218,325.058,199.618,366.145,200.708z"/>
	<path fill-rule="evenodd" clip-rule="evenodd" fill="#757575" d="M192.887,200.819c39.584-1.101,78.024,31.556,77.953,77.727
		c-0.069,45.149-36.735,77.838-78.073,77.833c-40.626-0.006-78.031-32.528-77.757-78.513
		C115.283,232.125,153.532,199.746,192.887,200.819z"/>
</g>
</svg>
