<?xml version="1.0" encoding="utf-8"?>
<!-- Generator: Adobe Illustrator 16.0.0, SVG Export Plug-In . SVG Version: 6.00 Build 0)  -->
<!DOCTYPE svg PUBLIC "-//W3C//DTD SVG 1.1//EN" "http://www.w3.org/Graphics/SVG/1.1/DTD/svg11.dtd">
<svg version="1.1" id="Layer_1" xmlns="http://www.w3.org/2000/svg" xmlns:xlink="http://www.w3.org/1999/xlink" x="0px" y="0px"
	 width="4690.159px" height="2839.035px" viewBox="0 0 4690.159 2839.035" enable-background="new 0 0 4690.159 2839.035"
	 xml:space="preserve">
<rect x="-40.16" y="-63.987" fill-rule="evenodd" clip-rule="evenodd" fill="#DCDADA" width="4815.953" height="2896.539"/>
<polygon fill="#414042" points="858.354,1462.04 409.315,2317.417 814.898,2317.417 1307.394,2317.417 "/>
<g>
	<defs>
		<polygon id="SVGID_1_" points="867.606,1395.659 717.828,1736.617 853.112,1736.617 1017.385,1736.617 		"/>
	</defs>
	<clipPath id="SVGID_2_">
		<use xlink:href="#SVGID_1_"  overflow="visible"/>
	</clipPath>
	<g clip-path="url(#SVGID_2_)">
		<path fill="none" stroke="#FFFFFF" stroke-width="65" stroke-miterlimit="10" d="M768.706,1583.962c17.511,0,17.511,68,35.022,68
			c17.512,0,17.512-68,35.023-68c17.513,0,17.513,68,35.025,68c17.512,0,17.512-68,35.023-68c17.514,0,17.514,68,35.029,68
			c17.514,0,17.514-68,35.028-68"/>
	</g>
	<polygon clip-path="url(#SVGID_2_)" fill="#FFFFFF" points="873.782,1395.659 757.082,1617.962 862.488,1617.962 990.482,1617.962 
			"/>
</g>
<polygon fill="#414042" points="4569.28,1444.058 4103.561,2331.21 4524.211,2331.21 5035,2331.21 "/>
<g>
	<defs>
		<polygon id="SVGID_3_" points="4569.28,1381.866 4358.34,1814.948 4548.867,1814.948 4780.222,1814.948 		"/>
	</defs>
	<clipPath id="SVGID_4_">
		<use xlink:href="#SVGID_3_"  overflow="visible"/>
	</clipPath>
	<g clip-path="url(#SVGID_4_)">
		<path fill="none" stroke="#FFFFFF" stroke-width="102" stroke-miterlimit="10" d="M4425.994,1637.948
			c24.662,0,24.662,68,49.324,68s24.662-68,49.324-68c24.664,0,24.664,68,49.328,68c24.662,0,24.662-68,49.325-68
			c24.667,0,24.667,68,49.333,68s24.666-68,49.332-68"/>
	</g>
	<polygon clip-path="url(#SVGID_4_)" fill="#FFFFFF" points="4577.978,1381.866 4413.622,1694.948 4562.072,1694.948 
		4742.333,1694.948 	"/>
</g>
<polygon fill="#414042" points="3984.854,1668.401 3631.134,2342.204 3950.623,2342.204 4338.572,2342.204 "/>
<g>
	<defs>
		<polygon id="SVGID_5_" points="3984.854,1614.029 3874.613,1864.98 3974.186,1864.98 4095.093,1864.98 		"/>
	</defs>
	<clipPath id="SVGID_6_">
		<use xlink:href="#SVGID_5_"  overflow="visible"/>
	</clipPath>
	<g clip-path="url(#SVGID_6_)">
		<path fill="none" stroke="#FFFFFF" stroke-width="65" stroke-miterlimit="10" d="M3912.061,1743.648c12.889,0,12.889,68,25.777,68
			s12.889-68,25.778-68c12.889,0,12.889,68,25.777,68c12.89,0,12.89-68,25.778-68c12.891,0,12.891,68,25.782,68s12.892-68,25.782-68
			"/>
	</g>
	<polygon clip-path="url(#SVGID_6_)" fill="#FFFFFF" points="3989.398,1614.029 3903.504,1777.648 3981.086,1777.648 
		4075.291,1777.648 	"/>
</g>
<g opacity="0.4">
	<g>
		<circle fill="#FFFFFF" cx="2851.389" cy="941.538" r="43.693"/>
		<circle fill="#FFFFFF" cx="2923.246" cy="915.735" r="59.484"/>
		<ellipse fill="#FFFFFF" cx="2991.265" cy="938.38" rx="43.062" ry="41.206"/>
		<path fill-rule="evenodd" clip-rule="evenodd" fill="#FFFFFF" d="M3041.578,984.563c0,2.616-0.489,4.738-1.092,4.738h-237.841
			c-0.603,0-1.091-2.122-1.091-4.738v-34.742c0-2.617,0.488-4.738,1.091-4.738h237.841c0.603,0,1.092,2.121,1.092,4.738V984.563z"/>
		<circle fill="#FFFFFF" cx="3037.945" cy="965.418" r="23.881"/>
		<circle fill="#FFFFFF" cx="2801.555" cy="965.418" r="23.881"/>
	</g>
</g>
<polygon fill="#414042" points="2647.42,1452.501 2181.701,2339.653 2602.35,2339.653 3113.139,2339.653 "/>
<polygon fill="#414042" points="3239.432,1785.506 2933.029,2369.177 3209.779,2369.177 3545.836,2369.177 "/>
<g>
	<defs>
		<polygon id="SVGID_7_" points="2647.42,1390.309 2436.479,1823.392 2627.008,1823.392 2858.361,1823.392 		"/>
	</defs>
	<clipPath id="SVGID_8_">
		<use xlink:href="#SVGID_7_"  overflow="visible"/>
	</clipPath>
	<g clip-path="url(#SVGID_8_)">
		<path fill="none" stroke="#FFFFFF" stroke-width="102" stroke-miterlimit="10" d="M2508.133,1641.392
			c24.662,0,24.662,68,49.324,68s24.662-68,49.325-68c24.664,0,24.664,68,49.328,68c24.663,0,24.663-68,49.325-68
			c24.666,0,24.666,68,49.333,68s24.667-68,49.333-68"/>
	</g>
	<polygon clip-path="url(#SVGID_8_)" fill="#FFFFFF" points="2656.117,1390.309 2491.762,1703.392 2640.213,1703.392 
		2820.473,1703.392 	"/>
</g>
<g>
	<defs>
		<polygon id="SVGID_9_" points="3245.746,1740.211 3143.544,1972.865 3235.855,1972.865 3347.948,1972.865 		"/>
	</defs>
	<clipPath id="SVGID_10_">
		<use xlink:href="#SVGID_9_"  overflow="visible"/>
	</clipPath>
	<g clip-path="url(#SVGID_10_)">
		<path fill="none" stroke="#FFFFFF" stroke-width="65" stroke-miterlimit="10" d="M3178.261,1857.9c11.948,0,11.948,68,23.897,68
			s11.949-68,23.898-68s11.949,68,23.898,68s11.949-68,23.898-68c11.951,0,11.951,68,23.903,68c11.951,0,11.951-68,23.902-68"/>
	</g>
	<polygon clip-path="url(#SVGID_10_)" fill="#FFFFFF" points="3249.96,1740.211 3170.329,1891.9 3242.253,1891.9 3329.591,1891.9 	
		"/>
</g>
<polygon fill="#86A98F" points="-589.26,844.283 -956.808,1544.427 -624.829,1544.427 -221.712,1544.427 "/>
<polygon fill="#414042" points="48.326,1352.805 -473.466,2346.771 -2.17,2346.771 570.118,2346.771 "/>
<polygon fill="#414042" points="538.562,1654.836 176.506,2344.52 503.524,2344.52 900.619,2344.52 "/>
<polygon fill="#414042" points="1538.814,1331.241 1005.669,2346.833 1487.219,2346.833 2071.959,2346.833 "/>
<polygon fill="#414042" points="1959.851,1668.402 1606.132,2342.205 1925.621,2342.205 2313.57,2342.205 "/>
<g>
	<defs>
		<polygon id="SVGID_11_" points="48.326,1283.125 -188.013,1768.351 25.456,1768.351 284.665,1768.351 		"/>
	</defs>
	<clipPath id="SVGID_12_">
		<use xlink:href="#SVGID_11_"  overflow="visible"/>
	</clipPath>
	<g clip-path="url(#SVGID_12_)">
		<path fill="none" stroke="#FFFFFF" stroke-width="102" stroke-miterlimit="10" d="M-107.731,1599.902
			c27.631,0,27.631,68,55.263,68s27.632-68,55.264-68c27.633,0,27.633,68,55.267,68c27.632,0,27.632-68,55.265-68
			c27.636,0,27.636,68,55.272,68s27.636-68,55.272-68"/>
	</g>
	<polygon clip-path="url(#SVGID_12_)" fill="#FFFFFF" points="58.07,1283.125 -126.074,1633.902 40.25,1633.902 242.214,1633.902 	
		"/>
</g>
<g>
	<defs>
		<polygon id="SVGID_13_" points="1538.814,1262.885 1327.873,1695.968 1518.401,1695.968 1749.755,1695.968 		"/>
	</defs>
	<clipPath id="SVGID_14_">
		<use xlink:href="#SVGID_13_"  overflow="visible"/>
	</clipPath>
	<g clip-path="url(#SVGID_14_)">
		<path fill="none" stroke="#FFFFFF" stroke-width="102" stroke-miterlimit="10" d="M1398.527,1523.968
			c24.662,0,24.662,68,49.324,68c24.663,0,24.663-68,49.325-68c24.664,0,24.664,68,49.327,68c24.663,0,24.663-68,49.326-68
			c24.666,0,24.666,68,49.333,68s24.667-68,49.333-68"/>
	</g>
	<polygon clip-path="url(#SVGID_14_)" fill="#FFFFFF" points="1547.511,1262.885 1383.156,1575.968 1531.606,1575.968 
		1711.867,1575.968 	"/>
</g>
<g>
	<defs>
		<polygon id="SVGID_15_" points="546.022,1601.313 425.257,1876.226 534.336,1876.226 666.788,1876.226 		"/>
	</defs>
	<clipPath id="SVGID_16_">
		<use xlink:href="#SVGID_15_"  overflow="visible"/>
	</clipPath>
	<g clip-path="url(#SVGID_16_)">
		<path fill="none" stroke="#FFFFFF" stroke-width="65" stroke-miterlimit="10" d="M466.28,1746.555c14.119,0,14.119,68,28.238,68
			c14.12,0,14.12-68,28.239-68c14.12,0,14.12,68,28.24,68c14.12,0,14.12-68,28.239-68c14.122,0,14.122,68,28.243,68
			s14.122-68,28.243-68"/>
	</g>
	<polygon clip-path="url(#SVGID_16_)" fill="#FFFFFF" points="551.001,1601.313 456.907,1780.555 541.896,1780.555 
		645.096,1780.555 	"/>
</g>
<g opacity="0.4">
	<g>
		<circle fill="#FFFFFF" cx="899.526" cy="1106.582" r="43.693"/>
		<circle fill="#FFFFFF" cx="971.383" cy="1080.778" r="59.485"/>
		<ellipse fill="#FFFFFF" cx="1039.402" cy="1103.424" rx="43.062" ry="41.207"/>
		<path fill-rule="evenodd" clip-rule="evenodd" fill="#FFFFFF" d="M1089.714,1149.606c0,2.616-0.489,4.738-1.091,4.738H850.782
			c-0.602,0-1.091-2.122-1.091-4.738v-34.743c0-2.617,0.489-4.738,1.091-4.738h237.841c0.602,0,1.091,2.122,1.091,4.738V1149.606z"
			/>
		<circle fill="#FFFFFF" cx="1086.082" cy="1130.462" r="23.881"/>
		<circle fill="#FFFFFF" cx="849.692" cy="1130.462" r="23.881"/>
	</g>
</g>
<g opacity="0.4">
	<g>
		<circle fill="#FFFFFF" cx="1921.336" cy="1368.57" r="69.931"/>
		<circle fill="#FFFFFF" cx="2036.345" cy="1327.271" r="95.206"/>
		<ellipse fill="#FFFFFF" cx="2145.21" cy="1363.517" rx="68.921" ry="65.951"/>
		<path fill-rule="evenodd" clip-rule="evenodd" fill="#FFFFFF" d="M2225.735,1437.432c0,4.188-0.781,7.583-1.745,7.583h-380.668
			c-0.964,0-1.746-3.395-1.746-7.583v-55.607c0-4.187,0.782-7.583,1.746-7.583h380.668c0.964,0,1.745,3.396,1.745,7.583V1437.432z"
			/>
		<circle fill="#FFFFFF" cx="2219.923" cy="1406.792" r="38.222"/>
		<circle fill="#FFFFFF" cx="1841.577" cy="1406.792" r="38.222"/>
	</g>
</g>
<g>
	<defs>
		<polygon id="SVGID_17_" points="1959.851,1614.03 1849.611,1864.981 1949.183,1864.981 2070.091,1864.981 		"/>
	</defs>
	<clipPath id="SVGID_18_">
		<use xlink:href="#SVGID_17_"  overflow="visible"/>
	</clipPath>
	<g clip-path="url(#SVGID_18_)">
		<path fill="none" stroke="#FFFFFF" stroke-width="65" stroke-miterlimit="10" d="M1887.059,1743.649c12.889,0,12.889,68,25.777,68
			s12.889-68,25.778-68c12.888,0,12.888,68,25.777,68c12.89,0,12.89-68,25.779-68c12.891,0,12.891,68,25.782,68s12.891-68,25.782-68
			"/>
	</g>
	<polygon clip-path="url(#SVGID_18_)" fill="#FFFFFF" points="1964.396,1614.03 1878.502,1777.649 1956.084,1777.649 
		2050.29,1777.649 	"/>
</g>
<rect x="-32.121" y="-62.472" opacity="0.4" fill-rule="evenodd" clip-rule="evenodd" fill="#DCDADA" width="4816.953" height="2830.553"/>
<g>
	<g>
		<circle fill="#FFFFFF" cx="524.822" cy="408.67" r="159.959"/>
		<circle fill="#FFFFFF" cx="787.893" cy="314.201" r="217.776"/>
		<ellipse fill="#FFFFFF" cx="1036.912" cy="397.109" rx="157.651" ry="150.856"/>
		<path fill-rule="evenodd" clip-rule="evenodd" fill="#FFFFFF" d="M1221.107,566.185c0,9.579-1.788,17.345-3.993,17.345H346.372
			c-2.206,0-3.993-7.766-3.993-17.345V438.989c0-9.579,1.788-17.345,3.993-17.345h870.742c2.205,0,3.993,7.767,3.993,17.345V566.185
			z"/>
		<circle fill="#FFFFFF" cx="1207.811" cy="496.1" r="87.43"/>
		<circle fill="#FFFFFF" cx="342.379" cy="496.1" r="87.43"/>
	</g>
</g>
<g>
	<g>
		<circle fill="#FFFFFF" cx="1729.312" cy="610.028" r="118.807"/>
		<circle fill="#FFFFFF" cx="1924.703" cy="539.864" r="161.748"/>
		<ellipse fill="#FFFFFF" cx="2109.656" cy="601.441" rx="117.092" ry="112.045"/>
		<path fill-rule="evenodd" clip-rule="evenodd" fill="#FFFFFF" d="M2246.464,727.019c0,7.115-1.328,12.883-2.966,12.883h-646.725
			c-1.638,0-2.966-5.768-2.966-12.883v-94.472c0-7.115,1.328-12.883,2.966-12.883h646.725c1.638,0,2.966,5.768,2.966,12.883V727.019
			z"/>
		<circle fill="#FFFFFF" cx="2236.588" cy="674.964" r="64.937"/>
		<circle fill="#FFFFFF" cx="1593.807" cy="674.964" r="64.937"/>
	</g>
</g>
<g>
	<g>
		<circle fill="#FFFFFF" cx="3721.782" cy="576.682" r="159.959"/>
		<circle fill="#FFFFFF" cx="3984.853" cy="482.213" r="217.776"/>
		<ellipse fill="#FFFFFF" cx="4233.872" cy="565.121" rx="157.651" ry="150.855"/>
		<path fill-rule="evenodd" clip-rule="evenodd" fill="#FFFFFF" d="M4418.067,734.197c0,9.578-1.788,17.344-3.993,17.344h-870.742
			c-2.206,0-3.993-7.766-3.993-17.344V607c0-9.578,1.787-17.345,3.993-17.345h870.742c2.205,0,3.993,7.767,3.993,17.345V734.197z"/>
		<circle fill="#FFFFFF" cx="4404.771" cy="664.111" r="87.43"/>
		<circle fill="#FFFFFF" cx="3539.339" cy="664.111" r="87.43"/>
	</g>
</g>
<rect x="5.762" y="2330.261" fill="#86A98F" width="4685.064" height="510.774"/>
<path fill="#5A7562" d="M838.237,2298.894c0,0,424.441-235.124,931.438-235.124s776.844,156.02,917.999,243.552"/>
<path fill="#7B9B83" d="M-322.34,2329.133c0,0,499.74-356.435,1096.682-356.435s914.662,236.517,1080.858,369.21"/>
<path fill="#5A7562" d="M2321.029,2345.421c0,0,424.442-235.124,931.438-235.124c506.997,0,776.845,156.02,917.999,243.552"/>
<path fill="#7B9B83" d="M2586.784,2399.115c0,0,515.961-321.774,1132.278-321.774c616.315,0,944.35,213.517,1115.94,333.308"/>
<path fill="#7B9B83" d="M1658.743,2376.096c0,0,390.215-298.754,856.328-298.754c466.112,0,714.2,198.241,843.973,309.462"/>
<g>
	<polygon fill-rule="evenodd" clip-rule="evenodd" fill="#86A98F" points="4807.502,2847.002 4758.881,2835.035 4710.893,2847.035 
		4662.904,2835.035 4614.914,2847.035 4566.926,2835.035 4518.938,2847.035 4470.949,2835.035 4422.961,2847.035 4374.973,2835.035 
		4326.983,2847.035 4278.995,2835.035 4231.007,2847.035 4183.017,2835.035 4135.028,2847.035 4087.039,2835.035 4039.05,2847.035 
		3991.061,2835.035 3943.07,2847.035 3895.082,2835.035 3847.094,2847.035 3799.105,2835.035 3751.116,2847.035 3703.127,2835.035 
		3655.138,2847.035 3607.147,2835.035 3559.159,2847.035 3511.169,2835.035 3463.18,2847.035 3415.189,2835.035 3367.201,2847.035 
		3319.211,2835.035 3271.222,2847.035 3223.231,2835.035 3175.242,2847.035 3127.252,2835.035 3079.262,2847.035 3031.272,2835.035 
		2983.283,2847.035 2935.297,2835.035 2887.313,2847.035 2839.326,2835.035 2791.339,2847.035 2743.354,2835.035 2695.365,2847.035 
		2647.379,2835.035 2599.394,2847.035 2551.402,2835.035 2503.416,2847.035 2455.429,2835.035 2407.439,2847.035 2359.453,2835.035 
		2311.461,2847.035 2263.475,2835.035 2215.483,2847.035 2167.497,2835.035 2119.505,2847.035 2071.518,2835.035 2023.526,2847.035 
		1975.538,2835.035 1927.547,2847.035 1879.558,2835.035 1831.569,2847.035 1783.577,2835.035 1735.588,2847.035 1687.598,2835.035 
		1639.605,2847.035 1591.615,2835.035 1543.625,2847.035 1495.635,2835.035 1447.644,2847.035 1399.651,2835.035 1351.658,2847.035 
		1303.665,2835.035 1255.672,2847.035 1207.681,2835.035 1159.689,2847.035 1111.698,2835.035 1063.704,2847.035 1015.712,2835.035 
		967.719,2847.035 919.727,2835.035 871.734,2847.035 823.741,2835.035 775.753,2847.035 727.763,2835.035 679.768,2847.035 
		631.778,2835.035 583.785,2847.035 535.794,2835.035 487.802,2847.035 439.809,2835.035 391.813,2847.035 343.817,2835.035 
		295.823,2847.035 247.826,2835.035 199.832,2847.035 151.837,2835.035 103.84,2847.035 55.845,2835.035 7.843,2847.035 
		-39.531,2835.068 -46.16,2835.978 -34.16,2830.923 -46.16,2825.868 -34.16,2820.813 -46.16,2815.761 -34.16,2810.708 
		-46.16,2805.655 -34.16,2800.604 -46.16,2795.55 -34.16,2790.496 -46.16,2785.441 -34.16,2780.386 -46.16,2775.328 
		-34.16,2770.272 -46.16,2765.217 -34.16,2760.163 -46.16,2755.109 -34.16,2750.056 -46.16,2745.002 -34.16,2739.948 
		-46.16,2734.893 -34.16,2729.836 -46.16,2724.778 -34.16,2719.722 -46.16,2714.667 -34.16,2709.612 -46.16,2704.558 
		-34.16,2699.503 -46.16,2694.448 -34.16,2689.393 -46.16,2684.335 -34.16,2679.277 -46.16,2674.222 -34.16,2669.167 
		-46.16,2664.111 -34.16,2659.057 -46.16,2654 -34.16,2648.942 -46.16,2643.885 -34.16,2638.829 -46.16,2633.773 -34.16,2628.718 
		-46.16,2623.661 -34.16,2618.604 -46.16,2613.546 -34.16,2608.489 -46.16,2603.434 -34.16,2598.377 -46.16,2593.319 
		-34.16,2588.261 -46.16,2583.204 -34.16,2578.147 -46.16,2573.091 -34.16,2568.032 -46.16,2562.975 -34.16,2557.917 
		-46.16,2552.86 -34.16,2547.802 -46.16,2542.744 -34.16,2537.687 -46.16,2532.628 -34.16,2527.571 -46.16,2522.517 
		-34.16,2517.464 -46.16,2512.411 -34.16,2507.356 -46.16,2502.299 -34.16,2497.241 -46.16,2492.187 -34.16,2487.132 
		-46.16,2482.076 -34.16,2477.016 -46.16,2471.959 -34.16,2466.903 -46.16,2461.846 -34.16,2456.786 -46.16,2451.729 
		-34.16,2446.672 -46.16,2441.612 -34.16,2436.555 -46.16,2431.494 -34.16,2426.436 -46.16,2421.376 -34.16,2416.316 
		-46.16,2411.256 -34.16,2406.196 -46.16,2401.135 -34.16,2396.073 -46.16,2391.013 -34.16,2385.956 -46.16,2380.896 
		-34.16,2375.838 -46.16,2370.777 -34.16,2365.715 -46.16,2360.652 -34.16,2355.59 -46.16,2350.525 -34.16,2345.464 
		-46.16,2340.398 -34.16,2335.33 -40.79,2324.294 7.831,2336.261 55.818,2324.261 103.806,2336.261 151.795,2324.261 
		199.784,2336.261 247.771,2324.261 295.761,2336.261 343.75,2324.261 391.737,2336.261 439.727,2324.261 487.716,2336.261 
		535.704,2324.261 583.694,2336.261 631.682,2324.261 679.671,2336.261 727.661,2324.261 775.648,2336.261 823.639,2324.261 
		871.627,2336.261 919.616,2324.261 967.606,2336.261 1015.594,2324.261 1063.585,2336.261 1111.573,2324.261 1159.563,2336.261 
		1207.552,2324.261 1255.542,2336.261 1303.531,2324.261 1351.521,2336.261 1399.51,2324.261 1447.5,2336.261 1495.489,2324.261 
		1543.479,2336.261 1591.469,2324.261 1639.459,2336.261 1687.449,2324.261 1735.439,2336.261 1783.429,2324.261 1831.415,2336.261 
		1879.399,2324.261 1927.387,2336.261 1975.374,2324.261 2023.359,2336.261 2071.347,2324.261 2119.334,2336.261 2167.32,2324.261 
		2215.311,2336.261 2263.297,2324.261 2311.284,2336.261 2359.273,2324.261 2407.26,2336.261 2455.251,2324.261 2503.237,2336.261 
		2551.229,2324.261 2599.216,2336.261 2647.207,2324.261 2695.194,2336.261 2743.187,2324.261 2791.174,2336.261 2839.166,2324.261 
		2887.154,2336.261 2935.145,2324.261 2983.136,2336.261 3031.125,2324.261 3079.114,2336.261 3127.107,2324.261 3175.098,2336.261 
		3223.088,2324.261 3271.077,2336.261 3319.068,2324.261 3367.062,2336.261 3415.055,2324.261 3463.047,2336.261 3511.039,2324.261 
		3559.031,2336.261 3607.022,2324.261 3655.014,2336.261 3703.008,2324.261 3751,2336.261 3798.993,2324.261 3846.985,2336.261 
		3894.978,2324.261 3942.971,2336.261 3990.959,2324.261 4038.949,2336.261 4086.943,2324.261 4134.934,2336.261 4182.926,2324.261 
		4230.916,2336.261 4278.908,2324.261 4326.9,2336.261 4374.896,2324.261 4422.893,2336.261 4470.888,2324.261 4518.885,2336.261 
		4566.879,2324.261 4614.873,2336.261 4662.871,2324.261 4710.866,2336.261 4758.869,2324.261 4806.242,2336.228 4812.871,2335.317 
		4800.871,2340.373 4812.871,2345.428 4800.871,2350.481 4812.871,2355.534 4800.871,2360.587 4812.871,2365.64 4800.871,2370.692 
		4812.871,2375.745 4800.871,2380.8 4812.871,2385.854 4800.871,2390.91 4812.871,2395.968 4800.871,2401.024 4812.871,2406.079 
		4800.871,2411.133 4812.871,2416.187 4800.871,2421.24 4812.871,2426.294 4800.871,2431.348 4812.871,2436.403 4800.871,2441.46 
		4812.871,2446.518 4800.871,2451.574 4812.871,2456.629 4800.871,2461.684 4812.871,2466.738 4800.871,2471.792 4812.871,2476.848 
		4800.871,2481.903 4812.871,2486.961 4800.871,2492.019 4812.871,2497.074 4800.871,2502.129 4812.871,2507.185 4800.871,2512.239 
		4812.871,2517.296 4800.871,2522.354 4812.871,2527.411 4800.871,2532.467 4812.871,2537.522 4800.871,2542.578 4812.871,2547.634 
		4800.871,2552.692 4812.871,2557.75 4800.871,2562.806 4812.871,2567.862 4800.871,2572.919 4812.871,2577.977 4800.871,2583.035 
		4812.871,2588.091 4800.871,2593.147 4812.871,2598.205 4800.871,2603.264 4812.871,2608.321 4800.871,2613.378 4812.871,2618.436 
		4800.871,2623.494 4812.871,2628.552 4800.871,2633.609 4812.871,2638.667 4800.871,2643.725 4812.871,2648.778 4800.871,2653.831 
		4812.871,2658.884 4800.871,2663.938 4812.871,2668.997 4800.871,2674.054 4812.871,2679.108 4800.871,2684.163 4812.871,2689.22 
		4800.871,2694.279 4812.871,2699.336 4800.871,2704.393 4812.871,2709.45 4800.871,2714.51 4812.871,2719.566 4800.871,2724.624 
		4812.871,2729.685 4800.871,2734.742 4812.871,2739.802 4800.871,2744.86 4812.871,2749.921 4800.871,2754.98 4812.871,2760.041 
		4800.871,2765.101 4812.871,2770.161 4800.871,2775.223 4812.871,2780.284 4800.871,2785.34 4812.871,2790.4 4800.871,2795.458 
		4812.871,2800.519 4800.871,2805.581 4812.871,2810.644 4800.871,2815.706 4812.871,2820.771 4800.871,2825.831 4812.871,2830.896 
		4800.876,2836.2 	"/>
</g>
<g>
	<linearGradient id="SVGID_19_" gradientUnits="userSpaceOnUse" x1="3608.6533" y1="1859.5791" x2="3608.6533" y2="1001.5728">
		<stop  offset="0.5001" style="stop-color:#BDB896"/>
		<stop  offset="1" style="stop-color:#463D3B"/>
	</linearGradient>
	<path fill-rule="evenodd" clip-rule="evenodd" fill="url(#SVGID_19_)" d="M3559.27,1262.364c1.528,2.753,4.542,5.593,4.358,8.242
		c-2.19,31.799,8.374,60.548,24.73,87.527c10.624,17.526,24.548,32.92,43.671,43.282c14.023,7.6,28.328,14.754,42.271,22.479
		c3.066,1.698,6.805,4.678,7.392,7.567c4.717,23.262,9.627,46.549,12.511,70.036c0.979,7.97-4.428,16.456-5.575,24.866
		c-1.303,9.534-2.283,19.359-1.244,28.854c1.207,11.039,5.576,21.765,6.959,32.805c0.736,5.87-0.783,12.576-3.317,18.092
		c-5.46,11.887-7.479,23.631-5.48,36.581c0.885,5.731-1.659,12.318-4.04,18.01c-4.507,10.772-6.113,20.782-1.322,32.301
		c5.43,13.059,4.353,26.807-4.849,38.695c-6.251,8.075-8.562,15.887-4.71,25.767c3.794,9.729,5.646,20.037-5.156,27.857
		c-10.164,7.356-7.623,18.059-7.652,27.706c-0.055,17.043-3.883,32.42-19.931,46.549c-5.13-19.635-9.485-37.754-14.743-55.641
		c-1.803-6.135-4.607-12.797-9.145-17.294c-10.971-10.871-17.151-23.183-18.025-37.954c-1.178-19.873-9.94-37.32-18.388-55.23
		c-7.733-16.396-12.04-34.203-17.774-51.412c-4.088-12.271-10.006-23.121-23.315-29.002c-14.235-6.291-13.668-19.482-14.259-30.837
		c-0.635-12.222-4.303-21.505-15.123-28.767c-11.261-7.559-17.174-17.593-15.659-31.453c1.175-10.749,0.53-21.749-0.282-32.575
		c-0.38-5.072-2.069-10.571-4.914-14.867c-6.276-9.473-7.17-19.093-3.892-29.429c6.128-19.325,6.024-38.176-2.695-57.118
		c-2.231-4.845-1.694-12.006,0.341-17.146c9.228-23.296,11.098-46.745,4.936-70.889c-3.849-15.082-0.559-29.358,6.332-43.188
		c10.528-21.136,21.985-41.96,30.816-63.705c4.877-12.009,5.906-25.559,7.409-38.541c2.009-17.35,3.062-34.809,4.041-52.247
		c1.515-26.959,19.838-42.403,42.271-55.434c6.813-3.959,13.844-8.199,19.171-13.672c17.743-18.222,40.496-24.22,65.615-25.607
		c5.21-0.289,10.598-1.083,15.472-2.746c15.475-5.277,30.479-3.732,45.341,1.745c15.737,5.796,19.146,16.62,17.16,31.785
		c-2.22,16.963-11.46,25.284-26.592,32.686c-14.838,7.258-27.328,18.57-41.629,26.94c-18.799,11-38.575,20.538-57.513,31.34
		c-11,6.274-22.187,12.826-31.366,21.108c-5.763,5.2-7.961,13.84-14.305,20.496c1.167-4.178,1.854-8.54,3.589-12.502
		c6.318-14.459,19.199-23.446,32.309-31.846c13.926-8.923,29.163-16.154,42.572-25.666c11.407-8.093,22.006-17.621,31.171-27.904
		c9.054-10.158,18.024-19.229,32.583-21.769c2.32-0.404,4.464-1.691,6.688-2.571c-0.1-1.012-0.201-2.023-0.303-3.035
		c-7.44,0.656-15.387-0.023-22.228,2.224c-19.857,6.522-39.46,13.815-58.813,21.563c-23.758,9.514-44.632,21.546-46.863,49.491
		c-0.333,4.182-6.492,8.034-10.144,11.887c-3.271,3.448-7.17,6.418-10.144,10.061c-11.586,14.191-15.596,32.26-29.781,45.717
		c-10.363,9.832-3.486,24.431-0.492,36.92c3.682,15.36,5.602,31.292,11.243,45.988c7.703,20.062,3.599,38.114-5.089,56.349
		c-8.315,17.456-6.289,32.982,8.842,46.9c2.912,2.675,3.537,8.406,3.561,12.735c0.037,7.872-1.964,15.783-1.565,23.608
		c0.251,4.944,1.818,11.273,5.394,14.35c10.016,8.615,14.568,19.074,16.607,31.093c0.346,2.032,1.738,3.91,3.896,5.52
		c-2.265-13.803-0.103-28.707-10.486-40.372c-5.317-5.973-6.84-11.792-5.51-19.112c2.591-14.242,2.186-27.513-8.116-40.181
		c-8.79-10.81-4.251-24.07,0.38-35.252c6.621-15.986,4.701-31.581,2.059-47.535c-0.786-4.75-1.593-9.497-2.389-14.246
		C3557.182,1263.017,3558.225,1262.691,3559.27,1262.364z"/>
	
		<ellipse opacity="0.4" fill-rule="evenodd" clip-rule="evenodd" fill="#010101" stroke="#010101" stroke-miterlimit="10" cx="3775.65" cy="2621.298" rx="319.892" ry="49.456"/>
	<path fill-rule="evenodd" clip-rule="evenodd" fill="#2A332C" d="M3872.875,1657.076c1.263-3.569,4.01-6.681,6.068-10.005
		c1.18,0.376,2.361,0.749,3.542,1.125c4.24,8.297,7.042,17.652,12.993,24.691c17.369,20.551,35.002,41.07,54.404,59.922
		c20.685,20.098,43.662,38.128,65.299,57.391c5.353,4.768,9.03,4.094,12.829-0.884c4.069-5.337,8.095-10.716,11.831-16.259
		c17.361-25.749,34.639-51.549,51.894-77.361c3.796-5.679,6.278-11.092-2.038-15.771c-11.893-6.69-15.638-6.805-22.313,1.174
		c-16.265,19.439-32.405,38.97-48.569,58.481c-5.617,6.779-10.596,6.365-14.728-1.319c-9.481-17.635-18.978-35.266-28.414-52.924
		c-16.11-30.15-33.913-59.65-47.665-90.713c-9.39-21.211-23.655-35.578-45.412-44.107c-13.487-5.287-26.176-9.037-41.597-0.358
		c-18.542,10.435-39.163,18.731-60.014,24.22c-19.132,5.036-39.444,6.142-59.352,8.675c-1.832-1.543-4.187-2.481-6.945-2.481
		c-5.741,0-11.665,5.101-11.19,11.19c0.091,1.172,0.088,2.315,0.02,3.489c-0.009,0.091-0.016,0.161-0.023,0.238
		c-0.156,0.912-0.359,1.816-0.563,2.717c-0.752,3.312-1.849,6.549-2.95,9.758c-2.311,6.732-4.936,13.285-6.481,20.249
		c-1.938,8.734-5.365,17.732-4.901,26.791c0.16,3.136,0.625,6.255,0.852,9.387c0.104,1.423,0.11,2.843,0.043,4.266
		c-0.102,0.26-0.243,0.563-0.417,0.81c-0.296,0.42-0.533,0.86-0.744,1.31c-1.651,1.918-2.634,4.326-2.327,6.911
		c1.361,11.477,1.115,23.045,0.678,34.57c-0.095,2.489-0.162,4.778-0.414,6.119c-0.438,2.332-1.23,4.594-2.055,6.812
		c0.021-0.057-1.408,3.462-0.629,1.619c-0.68,1.606-1.368,3.209-2.037,4.818c-1.081,2.601-2.069,5.212-2.861,7.916
		c-3.027,10.34-0.108,21.341,0.61,31.766c0.147,2.138,0.12,4.274-0.036,6.409c0.039-0.991-0.398,1.785-0.438,1.942
		c-0.031,0.121-0.874,2.097-0.791,2.029c-2.214,4.298-5.47,8.102-8.314,11.971c-3.238,4.402-5.65,9.032-7.604,14.139
		c-2.021,5.287-2.205,11.398-2.412,16.994c-0.091,2.445-0.141,4.892-0.257,7.337c-0.052,1.081-0.144,2.158-0.242,3.236
		c0.104-1.303-0.335,1.853-0.348,1.92c-0.224,1.085-0.57,2.135-0.926,3.181c0.663-1.946-0.591,0.729-0.743,0.967
		c-0.055,0.084-1.029,1.358-1.199,1.607c-0.844,1.01-1.73,1.983-2.626,2.947c-6.186,6.665-13.677,12.201-19.181,19.466
		c-2.426-6.96-4.629-15.228-6.973-23.007c-1.442-4.784-5.723-8.216-10.792-8.216c-4.554,0-10.024,3.373-10.791,8.216
		c-0.102,0.644-0.234,1.265-0.397,1.896c-0.092,0.354-0.468,1.296-0.643,1.747c-0.828,1.693-1.791,3.324-2.76,4.936
		c-2.457,4.087-5.148,8.025-7.564,12.137c-5.838,9.929-9.594,21.272-3.973,32.155c0.602,1.164,1.427,2.139,2.389,2.939
		c0.747,1.221,1.639,2.342,2.514,3.131c11.939,10.762,14.146,22.233,4.074,34.167c-6.889,8.16-15.23,15.388-23.672,22.226
		c-6.221,5.041-16.125,7.382-20.031,13.391c-8.119,12.497-14.303,26.314-19.572,40.155c-13.689,35.953-26.564,72.179-39.52,108.372
		c-3.861,10.787-6.912,21.828-10.673,33.829c6.958,1.023,11.742,1.927,16.574,2.399c14.04,1.372,28.104,2.55,42.153,3.846
		c21.575,1.991,43.188,5.997,64.709,5.597c39.424-0.734,78.802-3.962,118.186-6.339c32.801-1.98,65.602-4.016,98.365-6.441
		c19.984-1.48,39.857-4.582,59.857-5.452c24.47-1.062,49.021-0.398,73.532-0.793c10.44-0.168,20.858-1.357,31.3-1.677
		c20.899-0.643,41.809-1.003,64.576-1.523c-9.151-19.834-16.109-37.44-25.219-54.019c-11.494-20.921-25.136-40.804-37.139-61.494
		c-16.625-28.655-32.474-57.699-48.865-86.47c-12.906-22.657-24.15-46.438-39.726-67.393c-18.44-24.806-30.37-52.407-45.296-78.705
		c-5.781-10.187-9.094-21.925-16.436-30.883c-4.315-5.264-4.303-7.862-2.374-13.24
		C3851.195,1719.728,3861.818,1688.336,3872.875,1657.076z"/>
	<path fill-rule="evenodd" clip-rule="evenodd" fill="#2A332C" d="M3517.42,1617.791c16.488,8.241,30.895,16.667,36.202,33.86
		c1.398,4.531,1.909,6.974-2.08,11.035c-23.038,23.459-45.426,47.476-68.046,71.292c-0.922,0.973-1.926,1.886-2.954,2.763
		c-12.003,10.24-11.179,9.734-1.857,23.142c9.537,13.718,16.988,28.686,25.793,42.868c7.906,12.739,16.54,25.083,24.575,37.757
		c2.797,4.412,8.33,8.816-0.007,14.019c-7.132,4.449-12.683,10.714-21.03,1.25c-19.214-21.779-39.393-42.822-58.406-64.747
		c-9.955-11.479-18.765-23.912-27.028-36.521c-2.294-3.504-2.932-10.521-0.688-13.653c22.492-31.402,45.486-62.5,68.929-93.295
		C3498.734,1637.167,3508.324,1627.884,3517.42,1617.791z"/>
	<path fill-rule="evenodd" clip-rule="evenodd" fill="#333333" d="M3771.85,2546.419c0.007-12.524-0.129-25.049,0.033-37.568
		c0.444-34.287,1.275-68.572,1.477-102.858c0.383-65.6,0.279-131.202,0.777-196.8c0.082-10.795,2.572-21.554,3.252-32.368
		c0.48-7.649,4.488-10.11,12.139-10.274c18.02-0.391,36.057-0.873,54.033-2.033c11.758-0.761,23.394-3.064,35.143-4.1
		c5.844-0.518,11.84,0.667,17.729,0.391c21.987-1.035,43.96-2.335,65.935-3.592c5.607-0.319,8.436,0.994,7.901,7.226
		c-2.001,23.363-6.397,45.982-15.063,68.268c-7.286,18.737-8.99,39.346-16.041,58.188c-12.18,32.553-26.264,64.498-40.144,96.474
		c-18.506,42.637-37.453,85.107-56.468,127.551c-9.48,21.158-18.736,42.46-29.611,63c-6.988,13.201-16.451,25.316-25.48,37.482
		c-1.897,2.556-7.327,4.978-10.078,4.203c-2.572-0.722-5.232-5.742-5.301-8.917
		C3771.623,2589.273,3771.844,2567.845,3771.85,2546.419z"/>
	<path fill-rule="evenodd" clip-rule="evenodd" fill="#333333" d="M3756.68,2620.473c-6.365-12.326-13.445-24.382-18.958-37.032
		c-13.944-32.006-26.683-64.473-40.82-96.401c-22.071-49.853-45.156-99.317-67.232-149.168c-5.917-13.36-9.792-27.513-14.509-41.328
		c-12.723-37.263-25.41-74.532-38.051-111.817c-0.94-2.771-1.404-5.681-2.021-8.246c17.744-1.45,35.064-3.241,52.436-4.205
		c28.184-1.564,56.391-2.807,84.604-3.75c14.697-0.49,29.459-0.488,44.123,0.341c2.922,0.164,7.498,4.838,7.945,7.865
		c1.736,11.73,2.467,23.626,2.894,35.479c0.463,12.825,0.509,25.682,0.141,38.51c-1.075,37.539-3.249,75.069-3.459,112.608
		c-0.181,32.16,1.837,64.333,2.666,96.504c0.134,5.208-1.188,10.435-1.273,15.66c-0.448,27.948-0.704,55.899-1.056,83.847
		c-0.219,17.466-0.365,34.934-0.861,52.395c-0.081,2.869-1.791,5.7-2.749,8.548
		C3759.225,2620.346,3757.953,2620.409,3756.68,2620.473z"/>
	<g>
		<path fill-rule="evenodd" clip-rule="evenodd" fill="#FFEFE0" d="M4101.416,1675.13c-6.592-2.926-12.554-5.572-19.561-8.682
			c9.771-18.072,19.355-35.798,29.287-54.169c2.417,0.329,5.324,0.726,9.087,1.239c-0.626-2.275-0.507-5.009-1.689-5.654
			c-16.006-8.708-17.473-23.4-19.247-38.373c-1.065-8.995-3.961-17.79-5.786-26.721c-0.773-3.785-0.911-7.683,1.102-12.617
			c6.389,8.899,12.775,17.8,20.175,28.109c1.584-3.615,2.664-5.501,3.253-7.512c7.093-24.198,21.111-44.104,41.729-60.219
			c7.53-5.885,13.237-3.725,14.962,3.584c2.462,10.428,3.808,21.429,3.229,32.068c-1.412,25.925-10.363,50.741-26.955,70.744
			C4130.961,1621.088,4116.943,1648.004,4101.416,1675.13z"/>
		<path fill-rule="evenodd" clip-rule="evenodd" fill="#FFEFE0" d="M3553.136,1895.064c-9.696-10.229-18.669-19.698-28.949-30.546
			c4.376-2.867,8.44-7.541,12.549-7.574c3.171-0.026,6.702,5.553,9.526,9.027c4.43,5.452,8.227,11.35,12.604,16.842
			c6.328,7.941,13.336,1.493,20.942-0.189c-0.428,2.339-0.593,3.879-1,5.362c-3.613,13.147-3.431,13.516,10.286,16.974
			c7.301,1.839,10.51,5.403,8.618,13.02c-4.175,16.807-13.276,29.44-31.241,35.561c-9.863,3.361-15.032,1.452-18.503-8.292
			C3541.453,1926.96,3540.588,1909.052,3553.136,1895.064z"/>
		<path fill-rule="evenodd" clip-rule="evenodd" fill="#FFEFE0" d="M3564.402,1250.295c-12.434-13.409-20.901-28.674-21.238-46.863
			c-0.09-4.861,2.336-10.921,5.897-14.373c3.919-3.798,10.478-5.225,15.886-7.684c2.173,4.564,6.231,9.145,6.188,13.693
			c-0.171,18.264-1.61,36.517-2.581,54.775C3567.17,1249.995,3565.786,1250.144,3564.402,1250.295z"/>
		<path fill-rule="evenodd" clip-rule="evenodd" fill="#FFEFE0" d="M3600.988,1110.916c5.503-23.257,28.812-32.38,59.67-35.907
			C3655.045,1087.552,3627.671,1104.19,3600.988,1110.916z"/>
		<path fill-rule="evenodd" clip-rule="evenodd" d="M3751.888,1337.019c-27.517,0.595-55.343-2.127-83.193-4.36
			c-3.333-0.268-6.835-2.416-9.467-4.544c-0.902-0.729,0.038-5.566,1.134-5.934c3.364-1.128,7.615-2.156,10.809-1.185
			c31.448,9.577,63.674,11.458,96.307,8.776c15.379-1.264,30.752-3.278,35.582-20.934c0.368-1.346,4.813-1.721,7.363-2.547
			c0.6,2.681,2.706,6.301,1.565,7.893c-10.142,14.148-25.188,20.604-42.931,21.995
			C3763.35,1336.625,3757.626,1336.894,3751.888,1337.019z"/>
	</g>
	<linearGradient id="SVGID_20_" gradientUnits="userSpaceOnUse" x1="3870.7725" y1="1528.1221" x2="3870.7725" y2="1007.8501">
		<stop  offset="0.5001" style="stop-color:#BDB896"/>
		<stop  offset="1" style="stop-color:#463D3B"/>
	</linearGradient>
	<path fill-rule="evenodd" clip-rule="evenodd" fill="url(#SVGID_20_)" d="M3865.542,1365.099
		c8.819,11.204,5.427,22.425,1.106,33.195c-5.461,13.612-7.246,26.671,1.566,39.667c4.4,6.492,4.711,13.045,1.859,20.623
		c-4.945,13.142-1.681,25.153,9.155,35.592c0.977-0.734,2.259-1.259,2.245-1.752c-0.338-12.387-0.738-24.775-1.3-37.154
		c-0.223-4.887-0.259-9.884-1.418-14.607c-3.474-14.154-1.751-27.421,1.765-41.737c3.231-13.159,1.526-28.462-2.326-41.728
		c-3.539-12.185-1.395-22.706,1.676-33.763c3.63-13.074,9.021-25.816,11.455-39.055c2.694-14.667,1.238-29.925-6.62-43.067
		c-11.386-19.038-16.837-38.79-15.014-60.506c3.138-37.365-15.376-65.861-42.897-90.746c-12.861-11.629-28.289-16.867-45.713-18.203
		c-7.67-0.588-16.346,0.335-22.662-2.786c-5.869-2.9-12.771-10.098-13.062-15.686c-1.473-28.083,19.936-48.748,52.888-45.122
		c27.077,2.979,50.632,12.391,72.397,25.331c15.713,9.341,29.251,21.91,45.704,30.923c6.156,3.372,11.431,11.909,12.609,18.764
		c4.432,25.782,19.786,46.668,31.803,69.24c15.952,29.959,28.743,60.984,22.76,95.943c-1.143,6.669,1.633,14.316,4.067,21.05
		c6.132,16.952,11.476,33.483,7.036,52.016c-2.407,10.05-0.685,21.004-0.496,31.545c0.368,20.616-6.521,38.765-20.942,54.338
		c-10.158,10.969-16.537,23.457-18.652,37.846c-3.193,21.737-19.92,34.868-37.006,46.279
		c-18.769,12.534-39.344,22.876-59.811,32.972c-16.977,8.375-33.074,0.376-48.576-5.724c-25.186-9.909-41.306-25.878-39.452-53.564
		c0.886-13.216,7.629-22.818,18.098-30.986c19.718-15.385,39.62-30.596,58.657-46.692
		C3853.822,1381.301,3859.063,1372.854,3865.542,1365.099z"/>
	<path opacity="0.3" fill-rule="evenodd" clip-rule="evenodd" fill="#27221E" d="M3875.639,1446.229
		c-1.604-3.374-3.752-6.45-6.43-8.823c1.284-7.45,1.001-14.971-2.15-22.291c-0.244-0.564-0.544-1.062-0.869-1.526
		c2.613-3.438,5.223-6.878,7.814-10.33c2.325-3.096,1.845-8.147,0-11.296c-1.166-1.99-2.785-3.42-4.655-4.313
		c1.677-2.051,3.249-4.169,4.655-6.385c3.273-5.154,1.1-12.315-4.015-15.311c-5.409-3.168-12.047-1.124-15.312,4.015
		c-0.321,0.507-0.667,0.997-1.016,1.485c-0.086,0.104-0.168,0.208-0.254,0.311c-1.328,1.589-2.756,3.094-4.206,4.572
		c-3.438,3.506-7.094,6.798-10.77,10.051c-9.122,8.075-18.521,15.834-27.679,23.87c-18.195,15.964-38.438,33.843-47.108,57.096
		c-3.626,9.721-3.122,20.255,1.496,29.514c5.162,10.349,16.125,17.183,26.409,21.539c3.835,1.625,8.134,1.653,11.448-0.151
		c0.904,2.212,2.209,4.321,3.937,6.327c4.46,5.181,12.121,7.496,18.545,8.845c4.656,0.977,9.638-0.645,12.257-4.464
		c2.577,2.793,6.581,4.312,11.057,3.306c4.646-1.045,8.592-2.967,12.017-5.506c1.789,0.233,3.617,0.066,5.279-0.529
		c4.377-5.507,12.175-17.952,11.882-28.371c1.342-16.447-2.216-22.428-4.618-39.027"/>
	<path opacity="0.3" fill-rule="evenodd" clip-rule="evenodd" fill="#27221E" d="M3702.861,1619.58
		c0.028,0.005,0.057,0.002,0.086,0.007c0.037-1.158,0.094-2.315,0.146-3.473C3703.002,1617.27,3702.925,1618.424,3702.861,1619.58z"
		/>
	<path opacity="0.3" fill-rule="evenodd" clip-rule="evenodd" fill="#27221E" d="M3699.067,1586.195
		c1.415-12.218,2.718-25.292-1.671-37.067c-1.353-3.631,2.848-5.646,5.598-4.198c-0.827-3.841-1.589-7.694-2.326-11.554
		c1.182-2.388,1.545-5.193,0.822-7.929c-1.711-6.483-3.491-12.949-5.345-19.393c-0.059-10.067-0.218-20.228-1.184-30.195
		c-0.006-0.614-0.016-1.229-0.018-1.845c-0.004-1.207-0.212-2.371-0.579-3.467c-2.182-16.907-7.09-33.104-18.266-47.168
		c-9.702-12.212-23.334-19.339-36.058-27.825c-1.13-1.574-2.251-3.153-3.349-4.749c-2.456-3.57-6.359-5.728-10.409-5.508
		c-2.41-2.026-4.757-4.125-7.051-6.281c-0.2-0.188-0.394-0.381-0.593-0.57c-1.684-2.191-3.282-4.481-5.1-7.319
		c-1.55-2.419-3.843-4.145-6.397-4.971c-0.206-0.247-0.417-0.49-0.622-0.737c-0.719-0.862-1.416-1.74-2.115-2.618
		c-0.125-0.157-0.229-0.288-0.321-0.403c-0.105-0.147-0.316-0.433-0.696-0.938c-5.369-7.155-10.062-14.775-14.285-22.654
		c-0.923-1.724-1.828-3.457-2.715-5.199c-0.497-0.976-0.973-1.963-1.443-2.95c-0.052-0.107-0.664-1.483-0.837-1.842
		c-1.328-3.29-2.325-6.691-3.031-10.167c-0.101-0.517-0.185-1.036-0.271-1.555c0.151,0.768-0.224-2.145-0.229-2.205
		c-0.227-2.585-0.249-5.187-0.226-7.778c0.044-5.008,0.625-10.009,1.046-14.994c0.979-11.607,0.145-22.629-4.9-33.275
		c-2.613-5.512-10.396-6.896-15.312-4.016c-5.596,3.279-6.627,9.799-4.014,15.312c4.029,8.501,1.965,19.89,1.148,30.139
		c-0.835,10.488-0.262,21.286,3.032,31.342c3.13,9.557,8.236,18.767,13.427,27.341c5.303,8.76,11.404,17.06,18.064,24.834
		c3.043,3.551,6.279,6.92,9.646,10.155c9.334,8.968,20.343,16.396,28.628,26.426c18.508,22.408,27.754,55.93,35.682,83.312
		c11.412,39.432,18.311,79.995,22.744,120.755c1.781-4.59,3.855-9.025,6.297-13.194
		C3696.73,1602.876,3698.101,1594.545,3699.067,1586.195z"/>
	<path opacity="0.3" fill-rule="evenodd" clip-rule="evenodd" fill="#27221E" d="M3706.819,1585.866
		c-0.517,4.338-1.129,8.674-1.728,13.014c0.082-0.085,0.16-0.173,0.242-0.257c0.908-0.931,2.275-1.203,3.532-0.962
		C3708.269,1593.716,3707.591,1589.782,3706.819,1585.866z"/>
	<path opacity="0.4" fill-rule="evenodd" clip-rule="evenodd" fill="#010101" d="M3866.489,1678.429
		c-4.659,12.543-11.868,23.982-18.774,35.54c-0.98,0.456-1.881,1.213-2.598,2.343c-11.684,18.443-28.483,33.08-39.359,52.094
		c-3.361,5.876,3.815,11.238,8.48,8.501c0.106,0.007,0.212,0.017,0.324,0.017c6.647,0.016,13.621,0.057,20.218,1.502
		c5.376,1.623,10.44,4.269,14.774,7.881c0.99,0.825,2.053,1.279,3.111,1.448c4.082,3.659,7.645,7.972,10.988,12.236
		c3.373,4.307,9.338-1.747,6.002-6.003c-2.956-3.771-6.092-7.482-9.547-10.826c0.588-1.84,0.194-3.907-1.822-5.588
		c-4.289-3.574-8.999-6.488-14.006-8.68c0.674-0.223,1.352-0.438,2.02-0.68c7.1-2.576,4.479-13.594-2.325-12.173
		c1.792-2.59,3.395-5.325,4.832-8.144c8.329-12.468,15.306-25.833,22.021-39.244c1.526-3.049,0.429-5.938-1.599-7.683
		c3.496-6.248,6.696-12.611,9.166-19.259C3881.175,1674.23,3869.236,1671.032,3866.489,1678.429z"/>
	<path opacity="0.4" fill-rule="evenodd" clip-rule="evenodd" fill="#010101" d="M3560.055,1654.765
		c-0.753-6.998-5.41-12.01-11.996-13.71c-1.58-2.679-3.506-5.127-5.884-7.215c-0.634-2.266-1.455-4.479-2.506-6.609
		c-4.614-9.351-14.349-12.325-24.02-10.872c-1.087,0.164-2.063,0.587-2.926,1.178c-7.586-2.027-16.005,6.705-10.942,14.152
		c3.551,5.225,7.021,10.501,10.075,16.035c2.713,4.919,4.163,8.314,5.409,14.127c0.646,3.012,0.525,8.239-0.221,11.847
		c-1.311,6.321-4.062,12.095-7.161,17.71c-0.573,1.04-0.947,2.15-1.134,3.279c-14.379,13.611-28.679,27.312-44.537,39.187
		c-1.5,0.768-2.99,1.552-4.457,2.379c-4.572,2.029-9.003,4.358-13.143,7.294c-3.299,2.34-2.345,7.911,2.143,7.91
		c1.277,0,2.555-0.004,3.832-0.012c12.523,5.283,26.039,12.104,34.178,23.377c3.172,4.394,10.541,0.162,7.33-4.285
		c-3.998-5.538-8.916-10.107-14.356-14.01c2.486-1.55,3.433-5.499,0.1-7.192c-0.478-0.241-0.944-0.502-1.417-0.752
		c0.193-0.256,0.363-0.526,0.502-0.813c0.652-0.192,1.268-0.522,1.773-1.029c1.637-1.635,1.637-4.367,0-6.002
		c-0.305-0.306-0.611-0.611-0.916-0.917c3.859-1.963,7.594-4.29,11.189-6.811c1.318-0.579,2.625-1.18,3.917-1.813
		c1.215-0.596,1.845-1.557,2.038-2.605c4.019-3.141,7.838-6.419,11.438-9.564c5.776-5.05,11.337-10.385,16.68-15.935
		c1.831-1.427,3.416-3.187,4.815-5.134c5.315-5.813,10.394-11.84,15.173-18.061c1.148-1.497,1.02-2.977,0.229-4.101
		c3.677,0.286,6.923-1.663,9.065-4.75C3557.527,1666.439,3560.679,1660.578,3560.055,1654.765z M3504.243,1711.334
		c-0.206,0.134-0.41,0.283-0.608,0.463c-1.977,1.785-4.057,3.394-6.201,4.893c4.774-4.411,9.495-8.886,14.218-13.357
		c0.194,0.183,0.389,0.361,0.589,0.522C3509.611,1706.395,3506.952,1708.899,3504.243,1711.334z"/>
	<path opacity="0.4" fill-rule="evenodd" clip-rule="evenodd" fill="#010101" d="M4020.146,1788.199
		c-10.798-13.133-22.671-25.302-34.378-37.61c-11.74-12.346-22.736-25.067-33.158-38.538
		c-19.227-24.851-45.793-42.824-64.925-67.694c-3.288-4.274-10.669-0.056-7.331,4.285c1.987,2.582,4.066,5.078,6.189,7.532
		c-3.06,0.828-4.728,5.652-1.194,7.882c9.563,6.033,11.563,17.739,17.558,26.592c3.545,5.231,9.754,9.129,14.766,12.851
		c5.395,4.009,10.775,7.952,15.508,12.754c18.104,18.372,31.891,41.352,54.039,55.462c2.297,1.463,4.498,0.393,5.576-1.414
		c7.334,7.771,14.556,15.643,21.348,23.901C4017.622,1798.435,4023.593,1792.392,4020.146,1788.199z M3940.936,1712.063
		c0.109-0.197,0.206-0.4,0.286-0.61c1.567,1.826,3.103,3.683,4.596,5.58c0.989,1.257,1.982,2.504,2.976,3.75
		C3946.238,1717.803,3943.632,1714.883,3940.936,1712.063z"/>
	<path opacity="0.4" fill-rule="evenodd" clip-rule="evenodd" fill="#010101" d="M3967.369,2149.289
		c-1.702,0.005-3.402,0.024-5.104,0.056c-32.167,0.392-64.168,3.886-96.174,7.136c-1.691-1.562-3.876-2.571-6.381-2.561
		c-19.363,0.078-38.5,3.101-57.551,6.383c-5.064-0.495-10.206-0.593-15.379-0.595c-2.824-0.001-5.1,1.074-6.748,2.727
		c-10.249,0.328-20.5,0.612-30.741,0.989c-6.119,0.226-12.237,0.452-18.356,0.679c-0.195-0.026-0.357-0.049-0.465-0.063
		c-1.178-0.165-2.355-0.332-3.533-0.5c-1.629-0.233-3.25-0.209-4.766,0.094c-1.793-0.683-3.604-1.31-5.428-1.89
		c-1.512-0.966-3.299-1.561-5.209-1.65c-0.193-0.009-0.388-0.014-0.581-0.021c-13.024-3.406-26.653-4.721-40.057-5.857
		c-18.813-1.597-36.134-2.807-54.169-9.176c-0.898-0.317-1.788-0.658-2.678-0.999c-0.065-0.024-1.338-0.545-1.661-0.67
		c-1.476-0.643-2.933-1.329-4.375-2.044c-3.304-1.637-6.477-3.529-9.526-5.6c-0.674-0.458-1.333-0.938-1.992-1.419
		c-0.086-0.063-0.148-0.107-0.217-0.157c-0.096-0.079-0.211-0.172-0.368-0.298c-1.228-0.984-2.403-2.031-3.558-3.099
		c-1.133-1.047-2.208-2.153-3.263-3.279c-0.521-0.557-1.021-1.132-1.521-1.707c-0.19-0.217-1.123-1.381-1.353-1.646
		c-1.631-2.193-3.094-4.508-4.43-6.892c-0.736-1.313-1.402-2.665-2.045-4.025c-0.088-0.186-0.396-0.894-0.548-1.236
		c-0.272-0.689-0.536-1.384-0.793-2.081c-1.073-2.923-1.903-5.931-2.606-8.962c-0.361-1.559-0.656-3.135-0.928-4.711
		c-0.092-0.529-0.166-1.061-0.245-1.591c0.055,0.261-0.233-2.017-0.269-2.359c-0.646-6.385-0.609-12.827-0.224-19.226
		c0.202-3.346,0.55-6.681,0.966-10.004c0.022-0.156,0.05-0.354,0.086-0.613c0.139-0.973,0.294-1.943,0.447-2.914
		c0.314-1.98,0.674-3.954,1.045-5.924c3.666-19.409,10.07-38.336,16.895-56.832c12.117-32.841,27.215-64.449,41.598-96.344
		c12.404-11.633,22.582-25.449,30.311-40.635c8.921-17.529,14.72-36.47,19.685-55.436c1.67-6.381,3.148-12.808,4.869-19.172
		c0.547-0.692,0.97-1.563,1.206-2.639c3.76-17.137,15.98-30.293,30.369-39.611c7.192-4.658,14.976-8.334,23.094-11.052
		c7.985-2.673,16.42-1.562,24.688-2.432c7.199-0.759,14.605-3.408,19.066-9.401c4.166-5.598-1.142-11.473-6.409-13.081
		c-5.053-1.542-10.917-1.314-16.13-1.03c-3.262,0.177-6.772,0.396-10.137,1.031c-2.269,0.255-4.635,0.457-7.029,0.53
		c-0.057-0.004-0.111-0.013-0.169-0.015c-2.927-0.131-5.847-0.323-8.763-0.615c-0.373-0.039-0.745-0.083-1.117-0.126
		c0.312,0.03-0.723-0.108-1.324-0.189c-4.605-1.075-8.811-3.168-11.982-6.906c-2.096-2.47-3.385-5.746-4.344-9.057
		c-0.252-2.889-0.295-5.796-0.23-8.692c0.166-7.459,0.965-12.814,1.928-18.854c1.078-6.767,2.399-13.49,3.529-20.248
		c2.857-17.092,1.859-33.718-2.08-50.612c-4.197-17.998-10.971-35.233-13.775-53.574c-0.797-5.206-7.252-8.008-11.868-6.737
		c-5.508,1.515-7.531,6.673-6.737,11.866c2.104,13.766,6.389,26.948,10.216,40.268c-0.994,1.983-1.323,4.346-1.014,6.739
		c0.001,0.005,0.001,0.008,0.001,0.014c0.062,0.558,0.096,1.117,0.132,1.677c0.074,1.187,0.074,2.376,0.059,3.562
		c-0.034,2.583-0.278,5.158-0.59,7.722c0.036-0.437-0.423,2.74-0.522,3.34c-0.255,1.515-0.541,3.023-0.834,4.53
		c-0.673,3.467-1.443,6.915-2.236,10.356c-3.31,14.362-7.197,28.595-9.746,43.122c-2.463,14.04-4.062,28.758-0.541,42.769
		c0.676,2.69,1.591,5.229,2.715,7.617c-0.548,0.631-0.978,1.408-1.236,2.353c-0.219,0.794-0.237,1.676-0.098,2.55
		c-3.154,1.89-4.621,5.561-4.41,9.1c-4.142,4.563-6.143,11.008-4.753,18.259c0.337,1.76,1.679,3.157,3.327,3.925
		c-1.927,3.628-3.647,7.377-5.199,11.18c-6.716,16.472-9.654,34.298-14.646,51.318c-5.283,18.02-11.521,34.24-21.74,50.053
		c-0.158,0.129-0.312,0.269-0.463,0.431c-0.901,0.978-1.774,1.977-2.629,2.988c-0.995-0.242-2.049-0.343-3.104-0.29
		c-0.233-3.243-1.006-6.557-2.291-9.906c-3.851-10.039-10.884-18.733-13.822-29.12c-1.488-5.259-9.681-3.021-8.187,2.257
		c0.39,1.377,0.852,2.726,1.358,4.055c-3.137-0.42-6.594,2.796-4.402,6.221c0.172,0.269,0.33,0.542,0.492,0.813
		c-1.85,3.045-3.352,6.277-4.729,9.569c-0.337,0.526-0.673,1.052-1.003,1.575c-3.379,5.361-6.828,10.678-9.859,16.249
		c-4.569,8.396-9.438,19.775-5.142,29.062c0.059,1.663,0.878,2.756,2.011,3.293c1.37,1.598,3.537,2.358,5.516,1.155
		c0.6-0.363,1.176-0.763,1.741-1.18c1.085,3.096,2.667,6.133,4.027,8.919c0.307,0.629,0.759,1.077,1.288,1.395
		c-5.203,10.242-10.254,20.551-15.191,30.91c-8.909,9.998-22.365,15.014-31.737,25.062c-1.006,1.078-1.337,2.287-1.197,3.404
		c-2.409-0.297-4.063,1.47-4.468,3.473c-0.3,0.263-0.568,0.57-0.787,0.927c-5.713,9.308-11.112,21.307-11.43,32.797
		c-5.027,6.949-9.765,14.11-14.038,21.61c-1.091,1.914-0.381,4.14,1.071,5.42c-10.069,12.894-18.416,27.354-18.629,44.186
		c-0.035,2.838,1.266,5.233,3.203,6.928c-12.896,18.669-31.725,36.281-32.144,60.215c-0.096,5.46,3.562,8.52,7.718,9.188
		c1.299,1.707,3.116,3.027,5.152,3.588c3.928,1.08,7.59-0.408,9.929-3.259c1.089,2.763,3.288,5.077,6.278,5.573
		c11.157,1.853,23.566,4.165,35.475,3.674c7.414,6.7,19.348,7.458,28.943,7.963c-2.644,5.941,0.277,14.564,8.762,14.562
		c26.154-0.009,52.3-0.495,78.439-1.217c1.353,0.759,2.984,1.214,4.909,1.217c2.871,0.006,5.74,0.048,8.608,0.105
		c6.688,1.526,13.205,3.973,19.384,6.769c8.927,4.038,17.612,9.034,25.464,14.984c6.668,6.405,12.759,13.418,18.008,20.346
		c3.195,4.219,6.159,8.609,8.927,13.12c0.991,2.915,1.922,5.851,2.722,8.831c2.717,10.114,4.392,20.678,6.085,31.062
		c-0.284,0.699-0.45,1.499-0.449,2.406c0.038,41.866,3.274,83.646,3.468,125.51c0.19,41.641,6.865,82.909,6.951,124.535
		c0.002,1.138,0.262,2.106,0.696,2.919c-0.54,27.193-1.073,54.388-1.083,81.587c-0.002,6.969,10.803,6.969,10.805,0
		c0.011-27.076,0.541-54.18,1.082-81.29c0.532-0.868,0.852-1.938,0.848-3.216c-0.012-5.976-0.178-11.943-0.434-17.907
		c1.206-63.875,1.734-127.754-5.098-191.363c-0.211-1.967-0.439-3.933-0.666-5.898c1.752-0.719,3.11-2.309,3.11-4.777v-23.984
		c2.676-1.803,4.319-4.935,4.632-8.429c0.484-5.422,0.093-10.846-0.941-16.2c0.826-9.579,2.408-19.068,4.175-28.537
		c1.206-3.281,2.53-6.521,3.999-9.704c3.394-7.352,7.498-14.341,12.01-21.063c5.436-5.064,10.894-10.104,16.512-14.955
		c3.955-1.429,7.912-2.858,11.869-4.282c45.285-6.73,90.081-17.566,135.99-18.962c1.456-0.044,2.914-0.073,4.369-0.093
		c1.523-0.018,3.045-0.032,4.568-0.034C3980.309,2169.323,3980.311,2149.268,3967.369,2149.289z M3622.32,1855.875
		c0.264,0.534,0.516,1.07,0.761,1.608c-0.478,0.378-0.868,0.869-1.124,1.477c-0.338-2.01-0.699-4.017-1.135-6.002
		C3621.334,1853.927,3621.836,1854.897,3622.32,1855.875z M3615.009,1869.356c0.142,0.749,0.292,1.494,0.452,2.236
		c-0.304,0.262-0.604,0.525-0.906,0.79c-0.028-0.042-0.058-0.083-0.088-0.124
		C3614.705,1871.291,3614.892,1870.321,3615.009,1869.356z M3612.043,1852.883c0.135,0.555,0.265,1.11,0.387,1.67
		c-0.392-0.124-0.783-0.245-1.18-0.357C3611.517,1853.759,3611.782,1853.322,3612.043,1852.883z M3606.415,1861.725
		c0.55,0.112,1.101,0.237,1.647,0.373c-0.08,0.063-0.162,0.118-0.24,0.189c-1.935,1.744-3.703,3.621-5.338,5.6
		C3603.74,1865.819,3605.07,1863.772,3606.415,1861.725z M3557.164,2106.555c-0.144-0.538-0.262-1.08-0.375-1.624
		c-0.027-0.369-0.046-0.741-0.066-1.113c0.311,1.516,0.643,3.029,1.023,4.536c0.176,0.696,0.365,1.389,0.561,2.078
		C3557.9,2109.146,3557.512,2107.856,3557.164,2106.555z"/>
	<path opacity="0.4" fill-rule="evenodd" clip-rule="evenodd" fill="#010101" d="M3914.125,1560.826
		c-6.348-6.218-13.711-10.693-22.574-12.105c-0.967-0.154-1.93-0.154-2.844-0.005c-6.547-6.327-17.011-7.899-25.768-8.303
		c-10.604-0.488-22.357,0.837-32.01,5.496c-2.613,1.261-3.52,3.896-3.133,6.394c-1.258,0.342-2.512,0.696-3.764,1.063
		c-2.002-0.069-4.002-0.148-5.999-0.25c-3.231-0.163-5.219,1.653-5.976,3.981c-11.566,3.706-23.41,7.5-35.699,6.438
		c-8.434-0.729-8.363,12.397,0,13.12c17.11,1.479,32.887-5.171,48.971-10.132c20.97,0.626,42.051-0.605,62.747-3.993
		c0.738-0.122,1.392-0.396,1.968-0.775c5.816,1.297,10.412,4.049,14.802,8.348
		C3910.892,1576.026,3920.176,1566.755,3914.125,1560.826z"/>
	<path fill-rule="evenodd" clip-rule="evenodd" fill="#FFEFE0" d="M3837.427,1540.424c-40.884,26.636-85.693,33.811-134.019,33.297
		c-5.466-17.251-15.141-33.846-4.066-53.347c4.674-8.231,4.854-18.686,7.311-29.119c16.667-0.799,35.543-1.705,55.854-2.68
		C3768.654,1526.61,3806.947,1526.926,3837.427,1540.424z"/>
	<path fill-rule="evenodd" clip-rule="evenodd" fill="#DBDADA" d="M4111.529,1545.084c8.514-21.497,18.805-38.989,35.324-52.756
		c1.579-1.316,2.857-3.054,4.63-4.041c7.068-3.934,13.416-10.742,22.956-6.812c9.467,3.896,10.713,11.971,11.761,20.543
		c4.407,36.023-4.166,69.908-26.914,98.253c-16.852,20.992-31.797,42.438-44.073,65.814c-10.691,20.359-21.07,40.903-32.832,60.721
		c-8.478,14.284-19.015,27.504-28.604,41.215c-6.152,8.803-12.178,17.685-18.398,26.445c-5.059,7.124-10.494,7.51-18.652,2.853
		c-33.153-18.929-56.943-46.803-82.148-73.333c-13.986-14.726-27.306-30-41.104-44.884c-2.215-2.39-5.359-4.028-8.939-6.648
		c-4.067,11.075-7.67,21.363-11.622,31.534c-4.813,12.378-9.755,24.721-14.947,36.964c-4.827,11.378-0.036,21.529,4.654,31.409
		c10.692,22.521,21.434,45.053,33.224,67.083c16.516,30.868,33.335,61.627,51.243,91.805
		c24.032,40.497,49.668,80.165,73.757,120.636c14.082,23.658,26.585,48.139,39.582,72.352c3.469,6.462,6.481,13.184,9.083,19.992
		c3.394,8.887,1.137,10.95-9.077,11.064c-22.599,0.252-45.189,1.02-67.787,1.434c-5.3,0.098-7.499,1.553-8.936,7.085
		c-10.516,40.562-19.8,81.539-33.303,121.249c-13.812,40.613-30.674,80.457-48.555,119.703
		c-27.027,59.315-55.75,117.97-84.507,176.581c-8.6,17.53-19.702,33.992-29.72,50.907c-0.829,1.402-1.96,2.756-3.262,3.79
		c-13.412,10.635-21.902,10.239-31.353-3.562c-7.529-10.997-13.228-23.147-19.077-35.068c-7.182-14.635-13.979-29.453-20.408-44.391
		c-16.405-38.111-32.356-76.395-48.791-114.498c-12.865-29.822-26.723-59.282-39.108-89.272
		c-8.747-21.183-15.765-42.985-23.572-64.507c-7.011-19.321-14.233-38.577-21.017-57.967c-4.915-14.053-9.502-28.217-13.783-42.449
		c-2.452-8.154-6.331-12.207-16.639-12.407c-14.305-0.275-28.525-3.422-42.83-4.956c-8.035-0.861-16.377-2.21-24.195-1.06
		c-9.854,1.446-11.899-2.665-10.082-9.664c3.82-14.701,7.49-29.554,13.027-43.729c16.396-41.992,33.034-83.927,50.904-125.384
		c7.449-17.281,8.381-33.38,3.482-51.375c-2.872-10.557,0.373-22.524,0.539-33.862c0.059-3.986,0.711-9.271-1.615-11.737
		c-7.025-7.459-15.321-13.884-23.232-20.599c-6.773-5.749-14.429-10.742-20.433-17.106c-25.098-26.601-52.943-51.152-71.583-82.655
		c-3.895-6.582-9.327-12.498-12.287-19.382c-1.48-3.441-0.39-9.25,1.934-12.493c17.055-23.812,34.676-47.272,52.196-70.791
		c12.225-16.413,24.853-32.571,36.788-49.164c11.661-16.213,8.72-41.505-5.547-56.125c-5.624-5.764-12.986-11.338-15.354-18.251
		c-2.845-8.313-2.205-18.052-1.291-27.015c1.621-15.88,3.415-31.023-7.644-45.46c-3.855-5.036-4.211-13.93-2.983-20.546
		c3.796-20.462,4.822-40.109-3.105-60.335c-3.205-8.178-1.363-18.988,0.985-27.964c5.253-20.083,7.017-39.494,2.296-60.229
		c-2.43-10.675,1.617-23.374,5.416-34.352c4.51-13.032,11.554-25.354,18.106-37.705c18.81-35.448,27.708-73.034,28.37-112.415
		c0.369-22.049,6.372-42.521,20.777-60.03c5.436-6.607,13.67-11.25,20.797-16.595c13.667-10.25,26.961-21.036,41.395-30.255
		c7.734-4.938,17.233-8.26,26.447-10.212c14.334-3.036,29.723-2.5,43.555-6.677c25.115-7.585,46.271-1.698,66.93,11.295
		c3.017,1.897,9.165,2.407,12.237,0.817c26.579-13.748,53.607-11.014,80.05-1.276c13.877,5.109,26.589,13.225,39.32,20.735
		c15.598,9.202,31.62,18.141,45.604,29.232c8.419,6.677,16.638,16.53,18.994,26.215c3.526,14.494,10.067,27.138,17.249,39.881
		c11.311,20.066,23.713,39.677,33.576,60.347c8.111,16.996,9.824,35.663,6.983,54.284c-2.136,13.999-1.44,27.112,5.785,40.24
		c9.148,16.624,9.501,34.463,6.104,52.997c-3.315,18.069-3.37,36.642-6.054,54.839c-1.01,6.854-3.727,14.674-8.53,19.631
		c-14.446,14.911-25.581,30.851-31.896,50.476c-8.138,25.29-28.489,41.683-52.597,54.114c-16.923,8.726-34.046,17.11-52.781,26.499
		c8.122,2.682,14.46,5.506,21.142,6.854c28.551,5.759,43.569,25.177,55.52,47.518c14.178,26.501,27.593,53.355,41.794,79.845
		c12.119,22.603,24.884,44.904,38.007,68.501c7.301-8.219,12.944-14.54,18.552-20.893c13.882-15.725,29.046-30.642,41.239-47.438
		c11.375-15.673,19.742-33.27,29.021-50.217c1.473-2.688,1.997-6.842,0.887-9.585c-8.518-21.011-3.375-44.91-16.148-65.093
		c-2.284-3.609-2.16-9.074-1.605-13.516c0.317-2.55,3.369-6.173,5.86-6.739c2.582-0.584,7.063,1.155,8.797,3.258
		C4103.699,1531.724,4106.797,1537.631,4111.529,1545.084z M3878.942,1647.071c1.181,0.377,2.362,0.749,3.542,1.126
		c4.24,8.296,7.043,17.651,12.994,24.691c17.369,20.551,35.002,41.069,54.404,59.921c20.685,20.098,43.662,38.128,65.299,57.391
		c5.353,4.768,9.03,4.094,12.829-0.883c4.069-5.337,8.095-10.717,11.831-16.259c17.361-25.749,34.639-51.55,51.894-77.362
		c3.796-5.679,6.278-11.092-2.038-15.771c-11.893-6.69-15.638-6.805-22.313,1.173c-16.265,19.439-32.405,38.971-48.569,58.482
		c-5.617,6.778-10.596,6.365-14.728-1.319c-9.481-17.635-18.978-35.267-28.414-52.925c-16.11-30.15-33.913-59.65-47.665-90.712
		c-9.39-21.211-23.655-35.579-45.412-44.108c-13.487-5.287-26.176-9.037-41.598-0.357c-18.542,10.435-39.163,18.73-60.014,24.219
		c-20.88,5.496-43.166,6.306-64.797,9.405c-2.723,0.39-7.168,1.842-7.508,3.421c-3.726,17.354-6.895,34.818-10.007,52.284
		c-1.894,10.624-3.659,21.28-5.017,31.976c-0.637,5-1.391,10.445,0.033,15.128c3.482,11.454,4.738,22.136-0.776,33.677
		c-4.54,9.505-8.891,20.07-9.001,30.206c-0.16,14.651-3.738,27.854-9.641,41.043c-2.27,5.066-3.906,10.662-4.325,16.117
		c-1.804,23.539-10.633,44.046-28.037,61.364c-4.5,4.479-8.02,9.812-11.99,14.756c-0.954-0.312-1.908-0.621-2.862-0.934
		c-0.973-16.397,8.829-34.928-10.28-48.428c-8.739,19.253-17.651,38.216-25.715,57.489c-0.993,2.372,1.641,7.264,4.128,9.505
		c11.938,10.763,14.145,22.234,4.074,34.167c-6.889,8.161-15.23,15.388-23.672,22.226c-6.221,5.041-16.127,7.382-20.031,13.391
		c-8.119,12.498-14.303,26.314-19.572,40.155c-13.689,35.954-26.564,72.179-39.52,108.372c-3.862,10.788-6.914,21.828-10.674,33.83
		c6.958,1.022,11.742,1.927,16.574,2.398c14.041,1.373,28.105,2.551,42.154,3.846c21.574,1.992,43.188,5.997,64.709,5.597
		c39.424-0.734,78.801-3.962,118.185-6.339c32.801-1.98,65.602-4.016,98.366-6.441c19.983-1.479,39.857-4.582,59.856-5.452
		c24.471-1.062,49.021-0.397,73.533-0.792c10.44-0.169,20.858-1.358,31.3-1.677c20.899-0.644,41.809-1.004,64.576-1.524
		c-9.151-19.834-16.109-37.439-25.219-54.019c-11.494-20.921-25.136-40.803-37.139-61.493c-16.625-28.656-32.474-57.7-48.865-86.47
		c-12.906-22.657-24.15-46.438-39.726-67.394c-18.441-24.806-30.37-52.407-45.297-78.704c-5.78-10.187-9.093-21.925-16.435-30.883
		c-4.316-5.265-4.303-7.863-2.375-13.241c11.2-31.212,21.824-62.604,32.879-93.863
		C3874.137,1653.508,3876.885,1650.396,3878.942,1647.071z M3559.269,1262.364c-1.044,0.327-2.087,0.653-3.131,0.979
		c0.797,4.748,1.603,9.496,2.39,14.245c2.643,15.955,4.561,31.549-2.059,47.535c-4.631,11.182-9.17,24.442-0.38,35.252
		c10.302,12.667,10.706,25.938,8.116,40.18c-1.332,7.32,0.192,13.14,5.51,19.112c10.384,11.665,8.221,26.57,10.486,40.373
		c-2.158-1.61-3.552-3.487-3.896-5.521c-2.039-12.019-6.592-22.477-16.607-31.093c-3.576-3.076-5.143-9.404-5.395-14.349
		c-0.398-7.826,1.604-15.736,1.565-23.609c-0.022-4.328-0.648-10.059-3.56-12.734c-15.131-13.917-17.157-29.445-8.843-46.9
		c8.688-18.235,12.792-36.287,5.089-56.35c-5.641-14.696-7.561-30.627-11.242-45.987c-2.994-12.49-9.871-27.089,0.492-36.921
		c14.186-13.457,18.195-31.525,29.781-45.717c2.974-3.643,6.873-6.613,10.143-10.06c3.651-3.853,9.811-7.706,10.145-11.888
		c2.231-27.945,23.105-39.977,46.862-49.49c19.354-7.748,38.957-15.041,58.813-21.563c6.841-2.248,14.787-1.569,22.229-2.225
		c0.101,1.013,0.203,2.023,0.303,3.036c-2.224,0.878-4.367,2.166-6.688,2.571c-14.559,2.54-23.528,11.61-32.582,21.769
		c-9.165,10.282-19.764,19.811-31.171,27.903c-13.41,9.512-28.646,16.743-42.573,25.667c-13.11,8.4-25.991,17.387-32.308,31.845
		c-1.734,3.963-2.422,8.325-3.59,12.502c6.345-6.655,8.543-15.295,14.305-20.496c9.181-8.282,20.367-14.834,31.366-21.108
		c18.938-10.803,38.714-20.341,57.513-31.34c14.301-8.371,26.791-19.682,41.63-26.94c15.131-7.401,24.371-15.722,26.592-32.687
		c1.985-15.164-1.423-25.989-17.16-31.785c-14.862-5.478-29.866-7.023-45.343-1.745c-4.873,1.664-10.26,2.456-15.47,2.746
		c-25.119,1.388-47.873,7.386-65.615,25.607c-5.328,5.474-12.357,9.712-19.171,13.672c-22.433,13.032-40.756,28.475-42.271,55.435
		c-0.979,17.437-2.032,34.896-4.04,52.247c-1.503,12.981-2.532,26.531-7.409,38.54c-8.831,21.746-20.289,42.568-30.817,63.705
		c-6.89,13.83-10.18,28.107-6.331,43.188c6.162,24.144,4.291,47.593-4.936,70.89c-2.037,5.14-2.572,12.301-0.342,17.145
		c8.72,18.942,8.824,37.793,2.696,57.118c-3.278,10.336-2.385,19.956,3.891,29.43c2.846,4.296,4.534,9.794,4.915,14.866
		c0.812,10.826,1.457,21.827,0.282,32.575c-1.516,13.86,4.398,23.895,15.659,31.453c10.82,7.262,14.487,16.545,15.123,28.767
		c0.59,11.354,0.023,24.547,14.259,30.837c13.31,5.881,19.227,16.731,23.315,29.002c5.734,17.209,10.041,35.018,17.774,51.413
		c8.447,17.909,17.21,35.357,18.387,55.23c0.874,14.771,7.056,27.083,18.026,37.953c4.536,4.498,7.342,11.159,9.145,17.294
		c5.258,17.887,9.612,36.007,14.742,55.641c16.048-14.129,19.877-29.506,19.931-46.548c0.03-9.647-2.511-20.35,7.653-27.707
		c10.802-7.819,8.95-18.127,5.154-27.856c-3.851-9.88-1.54-17.692,4.711-25.768c9.201-11.889,10.279-25.637,4.85-38.694
		c-4.791-11.52-3.186-21.528,1.322-32.301c2.381-5.691,4.924-12.279,4.039-18.011c-1.998-12.95,0.021-24.694,5.481-36.581
		c2.534-5.516,4.054-12.222,3.317-18.092c-1.383-11.039-5.752-21.766-6.959-32.804c-1.039-9.494-0.06-19.32,1.243-28.854
		c1.148-8.41,6.554-16.896,5.575-24.866c-2.883-23.487-7.794-46.773-12.511-70.036c-0.587-2.89-4.325-5.869-7.391-7.566
		c-13.942-7.726-28.247-14.879-42.271-22.48c-19.122-10.362-33.047-25.754-43.671-43.282c-16.355-26.978-26.921-55.728-24.73-87.526
		C3563.811,1267.958,3560.798,1265.118,3559.269,1262.364z M3865.542,1365.099c-6.479,7.756-11.72,16.203-19.103,22.445
		c-19.036,16.096-38.938,31.307-58.656,46.693c-10.469,8.168-17.211,17.771-18.098,30.985
		c-1.853,27.687,14.268,43.656,39.453,53.564c15.502,6.1,31.6,14.1,48.575,5.725c20.468-10.097,41.043-20.438,59.812-32.973
		c17.086-11.411,33.812-24.541,37.006-46.278c2.115-14.391,8.494-26.878,18.652-37.847c14.422-15.573,21.311-33.722,20.942-54.338
		c-0.188-10.541-1.911-21.495,0.496-31.545c4.439-18.532-0.904-35.063-7.036-52.016c-2.435-6.733-5.21-14.38-4.067-21.049
		c5.983-34.959-6.808-65.984-22.76-95.944c-12.017-22.572-27.371-43.458-31.803-69.239c-1.179-6.855-6.453-15.393-12.609-18.764
		c-16.453-9.013-29.993-21.582-45.706-30.923c-21.765-12.941-45.318-22.352-72.396-25.332c-32.951-3.625-54.359,17.04-52.888,45.123
		c0.292,5.587,7.193,12.786,13.063,15.685c6.315,3.122,14.992,2.198,22.662,2.786c17.424,1.336,32.852,6.573,45.713,18.203
		c27.521,24.885,46.035,53.382,42.896,90.746c-1.822,21.717,3.629,41.468,15.014,60.506c7.859,13.142,9.315,28.399,6.621,43.067
		c-2.434,13.238-7.825,25.981-11.455,39.055c-3.07,11.057-5.216,21.577-1.676,33.762c3.853,13.265,5.557,28.57,2.326,41.729
		c-3.516,14.315-5.239,27.583-1.765,41.736c1.159,4.724,1.195,9.721,1.417,14.607c0.562,12.379,0.963,24.769,1.301,37.154
		c0.014,0.494-2.526,4.705-3.503,5.438c-10.835-10.438-12.843-26.137-7.899-39.277c2.853-7.578,2.542-14.132-1.857-20.623
		c-8.812-12.996-7.027-26.055-1.566-39.667C3870.969,1387.524,3874.359,1376.303,3865.542,1365.099z M3771.843,2546.421
		c0,21.425-0.22,42.854,0.239,64.271c0.068,3.175,2.729,8.194,5.301,8.916c2.75,0.774,8.18-1.647,10.078-4.202
		c9.029-12.166,18.49-24.281,25.48-37.482c10.875-20.54,20.131-41.843,29.611-63c19.014-42.443,37.962-84.914,56.468-127.551
		c13.88-31.977,27.964-63.922,40.144-96.475c7.051-18.842,8.755-39.451,16.041-58.188c8.666-22.285,13.062-44.905,15.063-68.268
		c0.534-6.232-2.294-7.545-7.901-7.226c-21.975,1.256-43.947,2.556-65.935,3.591c-5.89,0.277-11.886-0.907-17.729-0.391
		c-11.749,1.036-23.385,3.339-35.144,4.101c-17.976,1.159-36.013,1.642-54.032,2.033c-7.651,0.164-11.658,2.624-12.139,10.274
		c-0.68,10.813-3.17,21.572-3.252,32.368c-0.499,65.597-0.395,131.199-0.777,196.8c-0.201,34.285-1.033,68.57-1.477,102.857
		C3771.721,2521.371,3771.856,2533.895,3771.843,2546.421z M3756.68,2620.473c1.272-0.063,2.545-0.126,3.816-0.191
		c0.957-2.848,2.668-5.679,2.75-8.547c0.496-17.462,0.643-34.929,0.86-52.396c0.353-27.946,0.608-55.898,1.057-83.847
		c0.085-5.225,1.407-10.452,1.272-15.66c-0.829-32.171-2.846-64.343-2.665-96.504c0.21-37.539,2.384-75.068,3.458-112.608
		c0.369-12.827,0.322-25.684-0.141-38.509c-0.426-11.854-1.157-23.749-2.893-35.479c-0.447-3.028-5.023-7.701-7.947-7.865
		c-14.663-0.829-29.424-0.831-44.121-0.341c-28.213,0.942-56.421,2.186-84.604,3.749c-17.372,0.965-34.691,2.756-52.438,4.205
		c0.619,2.566,1.083,5.476,2.021,8.246c12.642,37.285,25.33,74.555,38.053,111.817c4.717,13.815,8.591,27.968,14.509,41.328
		c22.075,49.851,45.159,99.315,67.232,149.168c14.136,31.93,26.875,64.396,40.82,96.401
		C3743.234,2596.091,3750.314,2608.147,3756.68,2620.473z M3559.343,1674.619c-24.785,21.826-49.6,43.768-74.552,65.572
		c-4.67,4.082-2.223,7.28,0.178,11.202c17.629,28.807,35.002,57.745,52.619,86.555c6.291,10.288,12.657,20.571,19.68,30.425
		c7.756,10.881,22.711,10.008,28.975-1.947c9.125-17.407,17.723-35.085,25.705-52.973c5.607-12.565,4.092-15.693-8.59-23.046
		c-8.484-4.921-13.342-11.641-13.965-20.902c-0.551-8.212-0.26-16.521-1.466-24.64c-1.136-7.646-2.509-15.633-5.939-22.53
		C3573.822,1705.921,3558.096,1692.693,3559.343,1674.619z M3517.419,1617.791c-9.095,10.093-18.685,19.376-26.598,29.77
		c-23.442,30.796-46.436,61.894-68.928,93.296c-2.244,3.132-1.607,10.148,0.688,13.652c8.263,12.608,17.073,25.042,27.028,36.521
		c19.014,21.925,39.191,42.968,58.405,64.748c8.348,9.464,13.899,3.199,21.03-1.251c8.338-5.202,2.805-9.606,0.008-14.019
		c-8.035-12.673-16.67-25.017-24.575-37.756c-8.805-14.183-16.257-29.151-25.794-42.868c-9.32-13.408-10.145-12.902,1.858-23.142
		c1.028-0.877,2.032-1.791,2.954-2.763c22.62-23.816,45.007-47.834,68.045-71.292c3.99-4.062,3.479-6.505,2.08-11.036
		C3548.314,1634.458,3533.908,1626.033,3517.419,1617.791z M3837.426,1540.826c-30.479-13.497-68.771-13.812-74.92-51.848
		c-20.311,0.974-39.188,1.88-55.854,2.681c-2.457,10.432-2.637,20.887-7.311,29.118c-11.074,19.502-1.4,36.096,4.066,53.348
		C3751.732,1574.638,3796.543,1567.463,3837.426,1540.826z M4101.416,1675.132c15.527-27.128,29.545-54.043,49.586-78.203
		c16.592-20.003,25.543-44.818,26.955-70.743c0.578-10.641-0.768-21.642-3.229-32.068c-1.725-7.31-7.432-9.47-14.962-3.584
		c-20.618,16.113-34.637,36.02-41.729,60.218c-0.589,2.011-1.669,3.896-3.253,7.512c-7.399-10.31-13.786-19.209-20.175-28.108
		c-2.013,4.935-1.875,8.832-1.102,12.617c1.825,8.931,4.721,17.725,5.786,26.721c1.774,14.973,3.241,29.665,19.247,38.373
		c1.183,0.645,1.063,3.379,1.689,5.653c-3.763-0.513-6.67-0.91-9.087-1.239c-9.932,18.371-19.516,36.097-29.287,54.169
		C4088.862,1669.559,4094.824,1672.206,4101.416,1675.132z M3553.135,1895.064c-12.548,13.988-11.682,31.896-5.168,50.184
		c3.472,9.744,8.641,11.654,18.504,8.292c17.963-6.119,27.066-18.754,31.24-35.561c1.892-7.616-1.316-11.18-8.617-13.02
		c-13.718-3.457-13.9-3.825-10.287-16.973c0.408-1.483,0.573-3.023,1-5.363c-7.605,1.683-14.613,8.131-20.942,0.19
		c-4.376-5.493-8.173-11.391-12.603-16.843c-2.824-3.475-6.357-9.053-9.526-9.027c-4.108,0.033-8.173,4.707-12.549,7.574
		C3534.467,1875.366,3543.439,1884.835,3553.135,1895.064z M3564.401,1250.296c1.385-0.151,2.769-0.301,4.153-0.452
		c0.971-18.257,2.41-36.51,2.581-54.775c0.042-4.548-4.016-9.128-6.188-13.693c-5.408,2.458-11.967,3.886-15.886,7.685
		c-3.562,3.452-5.988,9.512-5.898,14.373C3543.501,1221.621,3551.969,1236.886,3564.401,1250.296z M3600.988,1110.916
		c26.682-6.725,54.057-23.363,59.67-35.907C3629.801,1078.536,3606.491,1087.659,3600.988,1110.916z"/>
	<path fill-rule="evenodd" clip-rule="evenodd" fill="#FFEFE0" d="M3858.461,1174.862c0,9.512-0.962,21.333,0.318,32.939
		c0.938,8.488,3.643,17.229,7.64,24.915c8.627,16.583,17.25,33.007,17.016,51.962c-0.052,4.163-1.549,8.361-2.743,12.45
		c-5.347,18.325-9.59,37.048-16.717,54.757c-4.338,10.781-11.451,21.718-20.392,29.514c-17.198,15.001-35.879,28.77-55.268,41.261
		c-17.154,11.051-27.589,24.137-25.73,44.085c0.49,5.245-1.366,8.495-7.091,8.834c-15.112,0.895-30.236,1.84-45.369,2.159
		c-6.651,0.142-10.428-2.774-10.883-10.217c-0.741-12.068-3.24-24.043-5.027-36.282c16.012,0.856,30.023,1.606,44.038,2.355
		c0.184-1.352,0.369-2.705,0.555-4.056c-5.538-0.984-11.124-1.771-16.604-2.979c-32.874-7.239-65.02-16.555-91.32-37.299
		c-24.316-19.179-39.764-44.097-49.222-72.409c-10.538-31.548-6.122-63.046-1.05-94.756c2.023-12.654,2.503-25.657,2.192-38.466
		c-0.411-16.978,6.128-30.167,20.917-39.801c5.204-3.39,10.49-6.833,16.187-9.382c29.803-13.342,56.188-31.382,82.151-50.237
		c8.424-6.118,18.9-10.106,28.992-13.719c3.782-1.355,9.264,0.736,13.758,1.945c10.322,2.78,20.39,8.046,30.782,8.587
		c21.655,1.121,39.763,7.58,51.456,24.792c9.965,14.667,18.329,30.31,26.817,45.801c2.05,3.744,1.795,8.587,2.634,13.104
		 M3752.096,1336.249c5.656,0,11.344,0.371,16.961-0.07c17.741-1.391,32.789-7.847,42.931-21.995
		c1.141-1.592-0.966-5.212-1.565-7.893c-2.55,0.826-6.995,1.201-7.363,2.547c-4.83,17.656-20.203,19.67-35.582,20.934
		c-32.633,2.682-64.858,0.801-96.307-8.776c-3.193-0.971-7.444,0.057-10.809,1.185c-1.096,0.368-2.036,5.204-1.134,5.934
		c2.632,2.128,6.134,4.276,9.467,4.544"/>
	<path opacity="0.2" fill-rule="evenodd" clip-rule="evenodd" fill="#807970" d="M3682.004,1229.348
		c-2.444,13.831-12.992,29.07-25.341,31.385l-20.067-5.274c-20.095-2.183-49.136-21.738-50.68-27.398c0,0-10.091-11.77-0.508-32.596
		c11.221-24.386,40.569-37.631,51.359-40.574c23.61-6.441,39.027,6.797,39.027,6.797c2.145,0,14.224,14.497,14.224,22.999
		L3682.004,1229.348z"/>
	<path opacity="0.2" fill-rule="evenodd" clip-rule="evenodd" fill="#807970" d="M3754.521,1229.348
		c2.445,13.831,12.992,29.07,25.342,31.385l20.066-5.274c20.095-2.183,49.137-21.738,50.68-27.398c0,0,10.092-11.77,0.508-32.596
		c-11.221-24.386-40.568-37.631-51.358-40.574c-23.611-6.441-39.028,6.797-39.028,6.797c-2.145,0-14.223,14.497-14.223,22.999
		L3754.521,1229.348z"/>
	<path fill-rule="evenodd" clip-rule="evenodd" fill="#2D2823" d="M3752.048,1151.911c0.456-6.215,1.368-18.648,1.368-18.648
		c23.121,0.703,69.373,2.107,69.373,2.107c8.625,0,38.677,42.807,38.677,42.807c-0.612-0.69-1.226-1.381-1.839-2.072
		c-8.916-6.229-17.834-12.46-26.75-18.689c-2.771-1.01-5.544-2.02-8.314-3.03c-22.033,0.16-44.072,0.32-66.105,0.48"/>
	<path fill-rule="evenodd" clip-rule="evenodd" fill="#2D2823" d="M3685.451,1157.979c-22.034-0.16-44.074-0.321-66.105-0.481
		c-2.771,1.01-5.543,2.02-8.315,3.03c-8.915,6.23-17.834,12.46-26.75,18.69c-0.612,0.69-1.226,1.381-1.839,2.071
		c0,0,30.052-42.807,38.677-42.807c0,0,46.252-1.405,69.374-2.107c0,0,0.911,12.433,1.367,18.649"/>
	<path fill-rule="evenodd" clip-rule="evenodd" fill="#010101" d="M3751.888,1336.616c-27.517,0.596-55.343-2.126-83.193-4.36
		c-3.333-0.267-6.835-2.417-9.467-4.543c-0.902-0.729,0.038-5.567,1.134-5.935c3.364-1.128,7.615-2.156,10.809-1.185
		c31.448,9.578,63.674,11.458,96.307,8.776c15.379-1.264,30.752-3.277,35.582-20.934c0.368-1.345,4.813-1.721,7.363-2.547
		c0.6,2.681,2.706,6.302,1.565,7.894c-10.142,14.147-25.188,20.604-42.931,21.994
		C3763.35,1336.223,3757.626,1336.491,3751.888,1336.616z"/>
	<path fill-rule="evenodd" clip-rule="evenodd" fill="#FFEFE0" d="M3836.803,1540.424c-40.883,26.636-85.693,33.811-134.018,33.297
		c-5.467-17.251-15.141-33.846-4.066-53.347c4.674-8.231,4.854-18.686,7.311-29.119c16.666-0.799,35.543-1.705,55.854-2.68
		C3768.031,1526.61,3806.323,1526.926,3836.803,1540.424z"/>
	<path fill-rule="evenodd" clip-rule="evenodd" fill="#FFEFE0" d="M3600.365,1110.513c5.503-23.257,28.812-32.38,59.67-35.907
		C3654.422,1087.149,3627.048,1103.787,3600.365,1110.513z"/>
	<path fill-rule="evenodd" clip-rule="evenodd" fill="#FFEFE0" d="M3563.778,1249.892c-12.433-13.408-20.901-28.673-21.237-46.863
		c-0.091-4.861,2.336-10.921,5.898-14.373c3.917-3.799,10.476-5.225,15.885-7.684c2.174,4.565,6.23,9.146,6.189,13.694
		c-0.171,18.264-1.611,36.517-2.582,54.775C3566.547,1249.592,3565.164,1249.741,3563.778,1249.892z"/>
	<path fill-rule="evenodd" clip-rule="evenodd" fill="#333333" d="M3791.892,1255.423c-16.597,3.39-30.435-14.042-31.995-24.232
		c-1.562-10.191-2.842-17.501-4.688-39.234s9.965-30.751,14.566-32.729c4.605-1.977,11.279-2.965,21.252,0.933
		c9.973,3.898,16.699,9.208,27.239,27.526c10.539,18.321,12.636,19.568,23.172,20.562c10.534,0.994,10.586-7.145,11.583-2.712
		c2.797,12.423-38.272,32.658-38.272,32.658S3808.486,1252.035,3791.892,1255.423z"/>
	<path fill-rule="evenodd" clip-rule="evenodd" fill="#FFFFFF" d="M3773.891,1172.675c-1.176-0.117-0.729,0.183-0.646,0.846
		c-0.191-1.452,4.22-2.251,8.006-1.717c3.836,0.541,7.052,2.428,7.144,2.474c0.54,0.391,2.316,1.848,2.694,2.197
		c9.118,7.407,16.307,16.644,20.514,31.353c3.647,12.754,1.806,22.144-1.829,28.878c-5.688,10.535-15.768,14.569-16.085,14.813
		c-0.168,0.02-0.334,0.039-0.499,0.054c-35.388,3.584-39.171-61.539-19.906-78.504
		C3773.297,1172.973,3774.215,1171.449,3773.891,1172.675z"/>
	<path fill-rule="evenodd" clip-rule="evenodd" fill="#333333" d="M3620.607,1241.711c0,0-40.586-21.03-37.904-33.769
		c0.957-4.545,1.056,3.812,11.43,2.857c10.375-0.956,12.434-2.224,22.71-20.97c10.277-18.744,16.873-24.154,26.676-28.095
		c9.804-3.942,16.385-2.885,20.935-0.827c4.546,2.059,16.237,11.392,14.547,33.695c-1.689,22.303-2.907,29.802-4.387,40.257
		c-1.478,10.453-15.01,28.267-31.382,24.684C3626.859,1255.961,3620.607,1241.711,3620.607,1241.711z"/>
	<path fill-rule="evenodd" clip-rule="evenodd" fill="#FFFFFF" d="M3662.082,1175.785c19.264,16.965,15.48,82.088-19.907,78.504
		c-0.165-0.016-0.331-0.035-0.498-0.054c-0.317-0.244-10.397-4.278-16.085-14.813c-3.635-6.734-5.478-16.125-1.83-28.878
		c4.207-14.709,11.396-23.946,20.515-31.353c0.378-0.349,2.153-1.806,2.693-2.197c0.093-0.045,3.308-1.933,7.145-2.474
		c3.786-0.535,8.197,0.265,8.006,1.717c0.082-0.664,0.528-0.962-0.647-0.846C3661.148,1174.166,3662.066,1175.689,3662.082,1175.785
		z"/>
</g>
</svg>
